<svg xmlns="http://www.w3.org/2000/svg" viewBox="800 100 200 200"><g transform="matrix(0.992792, 0, 0, 0.992792, 6.476694, 1.432965)"><rect width="200" height="200" x="800" y="100" rx="46.095" ry="46.095" style="fill:#fff;stroke:#e5e5e5"/><g transform="matrix(0.460848, 0, 0, 0.460848, 826.509155, 148.540207)"><path fill="red" d="M312.2563171,34.8599815c-3.6678162-13.7215042-14.4743347-24.5280342-28.1958618-28.1958084 C259.1894226,0,159.4602356,0,159.4602356,0S59.7310257,0,34.8600121,6.6641741 C21.1384773,10.3319483,10.3319483,21.1384773,6.6641588,34.8599815C0,59.7309647,0,111.6222,0,111.6222 s0,51.8912277,6.6641588,76.7622147c3.6677895,13.7214966,14.4743185,24.5280304,28.1958542,28.1958008 C59.7310257,223.2444,159.4602356,223.2444,159.4602356,223.2444s99.729187,0,124.6002197-6.6641846 c13.7215271-3.6677704,24.5280457-14.4743042,28.1958618-28.1958008 c6.6641541-24.8709869,6.6641541-76.7622147,6.6641541-76.7622147S318.9204712,59.7309647,312.2563171,34.8599815z"/><polygon fill="#FFF" points="127.568 159.46 210.423 111.624 127.568 63.784"/></g></g></svg>