<svg version="1.2" xmlns="http://www.w3.org/2000/svg" viewBox="0 0.3228000000000293 425.1972 382.67719999999997" width="426" height="383">
	<defs>
		<radialGradient id="g1" cx="0" cy="0" r="1" gradientUnits="userSpaceOnUse" gradientTransform="matrix(39.924,0,0,39.344,263.246,308.441)">
			<stop offset=".65" stop-color="#fcf4b7"/>
			<stop offset=".855" stop-color="#fce695"/>
			<stop offset="1" stop-color="#db7627"/>
		</radialGradient>
		<radialGradient id="g2" cx="0" cy="0" r="1" gradientUnits="userSpaceOnUse" gradientTransform="matrix(-11.058,11.373,-6.644,-6.46,236.739,304.191)">
			<stop offset="0" stop-color="#db6627"/>
			<stop offset="1" stop-color="#f27b1f" stop-opacity="0"/>
		</radialGradient>
		<radialGradient id="g3" cx="0" cy="0" r="1" gradientUnits="userSpaceOnUse" gradientTransform="matrix(-2.052,13.73,-6.581,-0.984,250.721,334.279)">
			<stop offset="0" stop-color="#db6627"/>
			<stop offset="1" stop-color="#f27b1f" stop-opacity="0"/>
		</radialGradient>
		<radialGradient id="g4" cx="0" cy="0" r="1" gradientUnits="userSpaceOnUse" gradientTransform="matrix(-16.546,57.278,-6.157,-1.779,300.102,287.918)">
			<stop offset="0" stop-color="#db6627"/>
			<stop offset="1" stop-color="#f27b1f" stop-opacity="0"/>
		</radialGradient>
		<radialGradient id="g5" cx="0" cy="0" r="1" gradientUnits="userSpaceOnUse" gradientTransform="matrix(-1.673,20.043,-5.485,-0.458,276.111,280.033)">
			<stop offset="0" stop-color="#db6627"/>
			<stop offset="1" stop-color="#f27b1f" stop-opacity="0"/>
		</radialGradient>
		<radialGradient id="g6" cx="0" cy="0" r="1" gradientUnits="userSpaceOnUse" gradientTransform="matrix(18.85,7.013,-1.632,4.387,263.695,338.192)">
			<stop offset="0" stop-color="#db6627"/>
			<stop offset="1" stop-color="#f27b1f" stop-opacity="0"/>
		</radialGradient>
		<radialGradient id="g7" cx="0" cy="0" r="1" gradientUnits="userSpaceOnUse" gradientTransform="matrix(-22.494,-25.784,3.516,-3.067,270.769,345.333)">
			<stop offset=".365" stop-color="#db6e14"/>
			<stop offset="1" stop-color="#f27b1f" stop-opacity="0"/>
		</radialGradient>
		<radialGradient id="g8" cx="0" cy="0" r="1" gradientUnits="userSpaceOnUse" gradientTransform="matrix(-10.774,-41.348,5.705,-1.487,255.782,327.773)">
			<stop offset=".365" stop-color="#db6e14"/>
			<stop offset="1" stop-color="#f27b1f" stop-opacity="0"/>
		</radialGradient>
		<radialGradient id="g9" cx="0" cy="0" r="1" gradientUnits="userSpaceOnUse" gradientTransform="matrix(-11.291,-6.122,2.52,-4.648,275.188,318.546)">
			<stop offset=".365" stop-color="#db6e14"/>
			<stop offset="1" stop-color="#f27b1f" stop-opacity="0"/>
		</radialGradient>
		<radialGradient id="g10" cx="0" cy="0" r="1" fx="-0.28" fy="-0.003" gradientUnits="userSpaceOnUse" gradientTransform="matrix(26.223,-1.362,.395,7.606,294.033,315.917)">
			<stop offset=".365" stop-color="#db6e14"/>
			<stop offset="1" stop-color="#f27b1f" stop-opacity="0"/>
		</radialGradient>
		<radialGradient id="g11" cx="0" cy="0" r="1" gradientUnits="userSpaceOnUse" gradientTransform="matrix(-18.93,16.72,-4.431,-5.017,295.71,305.516)">
			<stop offset=".365" stop-color="#db6e14"/>
			<stop offset="1" stop-color="#f27b1f" stop-opacity="0"/>
		</radialGradient>
		<radialGradient id="g12" cx="0" cy="0" r="1" gradientUnits="userSpaceOnUse" gradientTransform="matrix(-6.244,15.086,-5.611,-2.322,274.236,291.591)">
			<stop offset=".365" stop-color="#db6e14"/>
			<stop offset="1" stop-color="#f27b1f" stop-opacity="0"/>
		</radialGradient>
		<radialGradient id="g13" cx="0" cy="0" r="1" gradientUnits="userSpaceOnUse" gradientTransform="matrix(-18.308,-3.968,1.22,-5.626,286.315,322.125)">
			<stop offset=".365" stop-color="#db6e14"/>
			<stop offset="1" stop-color="#f27b1f" stop-opacity="0"/>
		</radialGradient>
		<radialGradient id="g14" cx="0" cy="0" r="1" gradientUnits="userSpaceOnUse" gradientTransform="matrix(3.175,-12.457,3.942,1.005,250.916,326.599)">
			<stop offset=".365" stop-color="#db6e14"/>
			<stop offset="1" stop-color="#f27b1f" stop-opacity="0"/>
		</radialGradient>
		<radialGradient id="g15" cx="0" cy="0" r="1" gradientUnits="userSpaceOnUse" gradientTransform="matrix(13.269,-19.607,15.002,10.152,254.942,302.999)">
			<stop offset=".766" stop-color="#db6e14"/>
			<stop offset="1" stop-color="#f27b1f" stop-opacity="0"/>
		</radialGradient>
		<radialGradient id="g16" cx="0" cy="0" r="1" gradientUnits="userSpaceOnUse" gradientTransform="matrix(-10.964,-34.862,5.124,-1.612,270.355,284.828)">
			<stop offset=".348" stop-color="#db6627"/>
			<stop offset="1" stop-color="#f27b1f" stop-opacity="0"/>
		</radialGradient>
		<radialGradient id="g17" cx="0" cy="0" r="1" gradientUnits="userSpaceOnUse" gradientTransform="matrix(3.746,-16.909,4.11,.91,272.872,293.049)">
			<stop offset=".348" stop-color="#db6627"/>
			<stop offset="1" stop-color="#f27b1f" stop-opacity="0"/>
		</radialGradient>
		<radialGradient id="g18" cx="0" cy="0" r="1" gradientUnits="userSpaceOnUse" gradientTransform="matrix(4.815,-14.169,5.767,1.96,253.578,321.568)">
			<stop offset=".348" stop-color="#db6627"/>
			<stop offset="1" stop-color="#f27b1f" stop-opacity="0"/>
		</radialGradient>
		<radialGradient id="g19" cx="0" cy="0" r="1" gradientUnits="userSpaceOnUse" gradientTransform="matrix(19.668,-9.512,2.562,5.298,236.801,302.946)">
			<stop offset=".348" stop-color="#db6627"/>
			<stop offset="1" stop-color="#f27b1f" stop-opacity="0"/>
		</radialGradient>
		<radialGradient id="g20" cx="0" cy="0" r="1" fx="-0.303" fy="0" gradientUnits="userSpaceOnUse" gradientTransform="matrix(-27.688,-1.097,.283,-7.146,237.138,295.454)">
			<stop offset=".348" stop-color="#db6627"/>
			<stop offset="1" stop-color="#f27b1f" stop-opacity="0"/>
		</radialGradient>
		<linearGradient id="g21" x2="1" gradientUnits="userSpaceOnUse" gradientTransform="matrix(-17.775,-4.595,2.799,-10.828,267.511,348.992)">
			<stop offset="0" stop-color="#e62117"/>
			<stop offset="1" stop-color="#fa4f14"/>
		</linearGradient>
		<radialGradient id="g22" cx="0" cy="0" r="1" gradientUnits="userSpaceOnUse" gradientTransform="matrix(4.825,-8.317,2.824,1.638,243.634,295.965)">
			<stop offset="0" stop-color="#b31e10"/>
			<stop offset="1" stop-color="#b31e10" stop-opacity="0"/>
		</radialGradient>
		<linearGradient id="g23" x2="1" gradientUnits="userSpaceOnUse" gradientTransform="matrix(19.383,-13.725,27.494,38.83,202.23,289.321)">
			<stop offset="0" stop-color="#e63f15"/>
			<stop offset="1" stop-color="#ec8333"/>
		</linearGradient>
		<radialGradient id="g24" cx="0" cy="0" r="1" gradientUnits="userSpaceOnUse" gradientTransform="matrix(.193,6.761,-3.803,.109,240.019,295.317)">
			<stop offset=".621" stop-color="#ffbe6b"/>
			<stop offset="1" stop-color="#ffbe6b" stop-opacity="0"/>
		</radialGradient>
		<radialGradient id="g25" cx="0" cy="0" r="1" fx="-0.465" fy="-0.102" gradientUnits="userSpaceOnUse" gradientTransform="matrix(12.39,-7.056,2.108,3.701,252.037,286.564)">
			<stop offset="0" stop-color="#fffde3"/>
			<stop offset="1" stop-color="#fff9a3" stop-opacity="0"/>
		</radialGradient>
		<radialGradient id="g26" cx="0" cy="0" r="1" fx="-0.054" fy="-0.005" gradientUnits="userSpaceOnUse" gradientTransform="matrix(10.848,-8.701,4.459,5.56,244.515,284.263)">
			<stop offset=".317" stop-color="#fffde3"/>
			<stop offset="1" stop-color="#fff9a3" stop-opacity="0"/>
		</radialGradient>
		<linearGradient id="g27" x2="1" gradientUnits="userSpaceOnUse" gradientTransform="matrix(-98.177,0,0,-7.873,376.331,182.31)">
			<stop offset="0" stop-color="#000000" stop-opacity="0"/>
			<stop offset="1" stop-color="#000000"/>
		</linearGradient>
		<radialGradient id="g28" cx="0" cy="0" r="1" fx="-0.729" fy=".018" gradientUnits="userSpaceOnUse" gradientTransform="matrix(-1.699,32.038,-8.109,-0.43,262.504,237.798)">
			<stop offset=".181" stop-color="#241712"/>
			<stop offset="1" stop-color="#633b2a" stop-opacity="0"/>
		</radialGradient>
		<linearGradient id="g29" x2="1" gradientUnits="userSpaceOnUse" gradientTransform="matrix(0,-78.868,35.016,0,192.826,129.352)">
			<stop offset="0" stop-color="#ffffff"/>
			<stop offset="1" stop-color="#d4e1ef"/>
		</linearGradient>
		<linearGradient id="g30" x2="1" gradientUnits="userSpaceOnUse" gradientTransform="matrix(7.628,0,0,28.462,258.026,235.326)">
			<stop offset="0" stop-color="#7a4d27"/>
			<stop offset=".456" stop-color="#c99360"/>
			<stop offset="1" stop-color="#7a4d27"/>
		</linearGradient>
		<radialGradient id="g31" cx="0" cy="0" r="1" fx="-0.027" fy="-0.362" gradientUnits="userSpaceOnUse" gradientTransform="matrix(4.33,.084,-0.268,13.797,261.555,222.771)">
			<stop offset="0" stop-color="#cc9560"/>
			<stop offset="1" stop-color="#7a4d27"/>
		</radialGradient>
		<radialGradient id="g32" cx="0" cy="0" r="1" fx=".148" fy="-0.598" gradientUnits="userSpaceOnUse" gradientTransform="matrix(7.841,2.338,-6.17,20.693,213.062,145.943)">
			<stop offset="0" stop-color="#1a100d"/>
			<stop offset="1" stop-color="#633b2a" stop-opacity="0"/>
		</radialGradient>
		<radialGradient id="g33" cx="0" cy="0" r="1" fx=".148" fy="-0.598" gradientUnits="userSpaceOnUse" gradientTransform="matrix(7.452,2.222,-2.343,7.858,218.828,137.232)">
			<stop offset="0" stop-color="#1a100d"/>
			<stop offset="1" stop-color="#633b2a" stop-opacity="0"/>
		</radialGradient>
		<radialGradient id="g34" cx="0" cy="0" r="1" fx=".148" fy="-0.598" gradientUnits="userSpaceOnUse" gradientTransform="matrix(-8.103,-2.253,7.573,-27.248,211.109,202.848)">
			<stop offset="0" stop-color="#241712"/>
			<stop offset="1" stop-color="#633b2a" stop-opacity="0"/>
		</radialGradient>
		<radialGradient id="g35" cx="0" cy="0" r="1" fx="-0.014" fy="0" gradientUnits="userSpaceOnUse" gradientTransform="matrix(6.648,.42,-3.373,53.368,211.364,172.209)">
			<stop offset="0" stop-color="#241712"/>
			<stop offset="1" stop-color="#633b2a" stop-opacity="0"/>
		</radialGradient>
		<radialGradient id="g36" cx="0" cy="0" r="1" fx="-0.077" fy=".427" gradientUnits="userSpaceOnUse" gradientTransform="matrix(5.117,1.817,-4.35,12.252,215.743,129.531)">
			<stop offset="0" stop-color="#cc9560"/>
			<stop offset="1" stop-color="#7a4d27"/>
		</radialGradient>
		<radialGradient id="g37" cx="0" cy="0" r="1" fx="-0.096" fy=".215" gradientUnits="userSpaceOnUse" gradientTransform="matrix(5.047,-4.296,9.468,11.122,225.138,130.089)">
			<stop offset="0" stop-color="#523529"/>
			<stop offset="1" stop-color="#633b2a" stop-opacity="0"/>
		</radialGradient>
		<linearGradient id="g38" x2="1" gradientUnits="userSpaceOnUse" gradientTransform="matrix(8.36,0,0,25.449,205.996,148.659)">
			<stop offset="0" stop-color="#7a4d27"/>
			<stop offset=".456" stop-color="#c99360"/>
			<stop offset="1" stop-color="#7a4d27"/>
		</linearGradient>
		<radialGradient id="g39" cx="0" cy="0" r="1" gradientUnits="userSpaceOnUse" gradientTransform="matrix(5.415,4.86,-7.05,7.855,200.729,215.016)">
			<stop offset="0" stop-color="#c18d5b"/>
			<stop offset="1" stop-color="#7a4d27"/>
		</radialGradient>
		<radialGradient id="g40" cx="0" cy="0" r="1" gradientUnits="userSpaceOnUse" gradientTransform="matrix(4.842,1.416,-3.905,13.35,190.663,214.178)">
			<stop offset="0" stop-color="#523529"/>
			<stop offset="1" stop-color="#633b2a" stop-opacity="0"/>
		</radialGradient>
		<linearGradient id="g41" x2="1" gradientUnits="userSpaceOnUse" gradientTransform="matrix(8.816,.149,-0.421,24.978,204.907,181.299)">
			<stop offset="0" stop-color="#7a4d27"/>
			<stop offset=".478" stop-color="#c99360"/>
			<stop offset="1" stop-color="#7a4d27"/>
		</linearGradient>
	</defs>
	<style>
		.s0 { fill: #b57f4d } 
		.s1 { fill: #000000 } 
		.s2 { fill: #fcf4b7 } 
		.s3 { fill: url(#g1) } 
		.s4 { fill: url(#g2) } 
		.s5 { fill: url(#g3) } 
		.s6 { fill: url(#g4) } 
		.s7 { fill: url(#g5) } 
		.s8 { fill: url(#g6) } 
		.s9 { fill: #f6c254 } 
		.s10 { fill: url(#g7) } 
		.s11 { fill: url(#g8) } 
		.s12 { fill: url(#g9) } 
		.s13 { fill: url(#g10) } 
		.s14 { fill: url(#g11) } 
		.s15 { fill: url(#g12) } 
		.s16 { fill: url(#g13) } 
		.s17 { fill: url(#g14) } 
		.s18 { fill: url(#g15) } 
		.s19 { fill: #f09d41 } 
		.s20 { fill: url(#g16) } 
		.s21 { fill: url(#g17) } 
		.s22 { fill: url(#g18) } 
		.s23 { fill: url(#g19) } 
		.s24 { fill: url(#g20) } 
		.s25 { fill: #c73421 } 
		.s26 { fill: #c92c1a } 
		.s27 { fill: #e3341e } 
		.s28 { fill: url(#g21) } 
		.s29 { fill: #7d291b } 
		.s30 { fill: #c72a21 } 
		.s31 { fill: #93291d } 
		.s32 { fill: url(#g22) } 
		.s33 { fill: url(#g23) } 
		.s34 { fill: url(#g24) } 
		.s35 { fill: #c72512 } 
		.s36 { fill: #f7b868 } 
		.s37 { fill: #cd220e } 
		.s38 { fill: #fffbcf } 
		.s39 { fill: #cc250e } 
		.s40 { fill: #8a291c } 
		.s41 { fill: #e22e17 } 
		.s42 { fill: #86291c } 
		.s43 { fill: #e8451c } 
		.s44 { fill: #de2b23 } 
		.s45 { fill: #ea6028 } 
		.s46 { fill: #fefdfc } 
		.s47 { fill: url(#g25) } 
		.s48 { fill: url(#g26) } 
		.s49 { fill: #ffffff } 
		.s50 { fill: url(#g27) } 
		.s51 { fill: url(#g28) } 
		.s52 { fill: url(#g29) } 
		.s53 { fill: url(#g30) } 
		.s54 { fill: url(#g31) } 
		.s55 { fill: #dba469 } 
		.s56 { fill: url(#g32) } 
		.s57 { fill: url(#g33) } 
		.s58 { fill: url(#g34) } 
		.s59 { fill: url(#g35) } 
		.s60 { fill: url(#g36) } 
		.s61 { fill: url(#g37) } 
		.s62 { fill: url(#g38) } 
		.s63 { fill: url(#g39) } 
		.s64 { fill: url(#g40) } 
		.s65 { fill: url(#g41) } 
	</style>
	<g id="Zone" style="display: none">
		<path id="&lt;Path&gt;" fill-rule="evenodd" class="s0" d="m425.2 383h-425.2v-382.68h425.2z"/>
	</g>
	<g id="CTR Logo">
		<g id="&lt;Group&gt;">
			<path id="&lt;Path&gt;" fill-rule="evenodd" class="s1" d="m282.58 273q7.19 3.93 12.3 10.33 5.16 6.47 7.22 14.51 2.02 7.88 1.64 15.95-0.36 8.13-4.21 15.33-3.94 7.35-10.52 12.48-6.72 5.22-15.04 7-8.29 1.62-16.67 0.48-8.25-1.11-15.23-5.67-6.91-4.52-11.57-11.34-4.56-6.66-6.46-14.52-1.98-8.15-0.96-16.48 1.02-8.45 5.6-15.63 3.56-5.49 8.66-9.6 6.33-5.06 14.31-6.64 7.51-1.61 15.13-0.97 8.39 0.71 15.8 4.77z"/>
			<g id="&lt;Group&gt;">
				<path id="&lt;Path&gt;" fill-rule="evenodd" class="s2" d="m273.41 270.69q-8.33-2.17-16.86-0.77-0.45 0.06-0.88 0.14-2.49 0.53-4.95 1.2-7.64 2.35-13.35 7.84-6.51 5.23-9.77 12.92-1.6 3.75-2.3 7.76-1.67 8.48 0.31 16.91 1.41 6.01 4.43 11.38 0.33 0.62 0.69 1.24 2.6 4.57 6.44 8.15 0.29 0.27 0.58 0.55 4.59 4.34 10.43 6.71 0.78 0.31 1.58 0.6 7.89 2.86 16.27 1.98 8.52-0.91 16.21-4.58 7.82-3.72 12.43-11.01 0.35-0.46 0.68-0.92 2.55-3.55 3.95-7.68 1.2-2.83 1.8-5.84 1.64-8.29 0.13-16.69-1.46-8.29-6.32-15.09-2.23-3.33-5.25-6.02-0.4-0.34-0.79-0.7-4.28-3.75-9.52-6.02-0.34-0.13-0.68-0.27l-4.95-1.71z"/>
				<path id="&lt;Path&gt;" fill-rule="evenodd" class="s3" d="m273.41 270.69q-8.33-2.17-16.86-0.77-0.45 0.06-0.88 0.14-2.49 0.53-4.95 1.2-7.64 2.35-13.35 7.84-6.51 5.23-9.77 12.92-1.6 3.75-2.3 7.76-1.67 8.48 0.31 16.91 1.41 6.01 4.43 11.38 0.33 0.62 0.69 1.24 2.6 4.57 6.44 8.15 0.29 0.27 0.58 0.55 4.59 4.34 10.43 6.71 0.78 0.31 1.58 0.6 7.89 2.86 16.27 1.98 8.52-0.91 16.21-4.58 7.82-3.72 12.43-11.01 0.35-0.46 0.68-0.92 2.55-3.55 3.95-7.68 1.2-2.83 1.8-5.84 1.64-8.29 0.13-16.69-1.46-8.29-6.32-15.09-2.23-3.33-5.25-6.02-0.4-0.34-0.79-0.7-4.28-3.75-9.52-6.02-0.34-0.13-0.68-0.27l-4.95-1.71z"/>
				<path id="&lt;Path&gt;" fill-rule="evenodd" class="s4" d="m273.41 270.69q-8.33-2.17-16.86-0.77-0.45 0.06-0.88 0.14-2.49 0.53-4.95 1.2-7.64 2.35-13.35 7.84-6.51 5.23-9.77 12.92-1.6 3.75-2.3 7.76-1.67 8.48 0.31 16.91 1.41 6.01 4.43 11.38 0.33 0.62 0.69 1.24 2.6 4.57 6.44 8.15 0.29 0.27 0.58 0.55 4.59 4.34 10.43 6.71 0.78 0.31 1.58 0.6 7.89 2.86 16.27 1.98 8.52-0.91 16.21-4.58 7.82-3.72 12.43-11.01 0.35-0.46 0.68-0.92 2.55-3.55 3.95-7.68 1.2-2.83 1.8-5.84 1.64-8.29 0.13-16.69-1.46-8.29-6.32-15.09-2.23-3.33-5.25-6.02-0.4-0.34-0.79-0.7-4.28-3.75-9.52-6.02-0.34-0.13-0.68-0.27l-4.95-1.71z"/>
				<path id="&lt;Path&gt;" fill-rule="evenodd" class="s5" d="m273.41 270.69q-8.33-2.17-16.86-0.77-0.45 0.06-0.88 0.14-2.49 0.53-4.95 1.2-7.64 2.35-13.35 7.84-6.51 5.23-9.77 12.92-1.6 3.75-2.3 7.76-1.67 8.48 0.31 16.91 1.41 6.01 4.43 11.38 0.33 0.62 0.69 1.24 2.6 4.57 6.44 8.15 0.29 0.27 0.58 0.55 4.59 4.34 10.43 6.71 0.78 0.31 1.58 0.6 7.89 2.86 16.27 1.98 8.52-0.91 16.21-4.58 7.82-3.72 12.43-11.01 0.35-0.46 0.68-0.92 2.55-3.55 3.95-7.68 1.2-2.83 1.8-5.84 1.64-8.29 0.13-16.69-1.46-8.29-6.32-15.09-2.23-3.33-5.25-6.02-0.4-0.34-0.79-0.7-4.28-3.75-9.52-6.02-0.34-0.13-0.68-0.27l-4.95-1.71z"/>
				<path id="&lt;Path&gt;" fill-rule="evenodd" class="s6" d="m273.41 270.69q-8.33-2.17-16.86-0.77-0.45 0.06-0.88 0.14-2.49 0.53-4.95 1.2-7.64 2.35-13.35 7.84-6.51 5.23-9.77 12.92-1.6 3.75-2.3 7.76-1.67 8.48 0.31 16.91 1.41 6.01 4.43 11.38 0.33 0.62 0.69 1.24 2.6 4.57 6.44 8.15 0.29 0.27 0.58 0.55 4.59 4.34 10.43 6.71 0.78 0.31 1.58 0.6 7.89 2.86 16.27 1.98 8.52-0.91 16.21-4.58 7.82-3.72 12.43-11.01 0.35-0.46 0.68-0.92 2.55-3.55 3.95-7.68 1.2-2.83 1.8-5.84 1.64-8.29 0.13-16.69-1.46-8.29-6.32-15.09-2.23-3.33-5.25-6.02-0.4-0.34-0.79-0.7-4.28-3.75-9.52-6.02-0.34-0.13-0.68-0.27l-4.95-1.71z"/>
				<path id="&lt;Path&gt;" fill-rule="evenodd" class="s7" d="m273.41 270.69q-8.33-2.17-16.86-0.77-0.45 0.06-0.88 0.14-2.49 0.53-4.95 1.2-7.64 2.35-13.35 7.84-6.51 5.23-9.77 12.92-1.6 3.75-2.3 7.76-1.67 8.48 0.31 16.91 1.41 6.01 4.43 11.38 0.33 0.62 0.69 1.24 2.6 4.57 6.44 8.15 0.29 0.27 0.58 0.55 4.59 4.34 10.43 6.71 0.78 0.31 1.58 0.6 7.89 2.86 16.27 1.98 8.52-0.91 16.21-4.58 7.82-3.72 12.43-11.01 0.35-0.46 0.68-0.92 2.55-3.55 3.95-7.68 1.2-2.83 1.8-5.84 1.64-8.29 0.13-16.69-1.46-8.29-6.32-15.09-2.23-3.33-5.25-6.02-0.4-0.34-0.79-0.7-4.28-3.75-9.52-6.02-0.34-0.13-0.68-0.27l-4.95-1.71z"/>
				<path id="&lt;Path&gt;" fill-rule="evenodd" class="s8" d="m273.41 270.69q-8.33-2.17-16.86-0.77-0.45 0.06-0.88 0.14-2.49 0.53-4.95 1.2-7.64 2.35-13.35 7.84-6.51 5.23-9.77 12.92-1.6 3.75-2.3 7.76-1.67 8.48 0.31 16.91 1.41 6.01 4.43 11.38 0.33 0.62 0.69 1.24 2.6 4.57 6.44 8.15 0.29 0.27 0.58 0.55 4.59 4.34 10.43 6.71 0.78 0.31 1.58 0.6 7.89 2.86 16.27 1.98 8.52-0.91 16.21-4.58 7.82-3.72 12.43-11.01 0.35-0.46 0.68-0.92 2.55-3.55 3.95-7.68 1.2-2.83 1.8-5.84 1.64-8.29 0.13-16.69-1.46-8.29-6.32-15.09-2.23-3.33-5.25-6.02-0.4-0.34-0.79-0.7-4.28-3.75-9.52-6.02-0.34-0.13-0.68-0.27l-4.95-1.71z"/>
			</g>
			<g id="&lt;Group&gt;">
				<path id="&lt;Path&gt;" fill-rule="evenodd" class="s9" d="m292.83 304.27q-0.01-0.05-0.03-0.1 0.05-0.08 0.1-0.15-3.53-7.71-9.38-13.72-2.49-2.56-5.61-4.32 0 0.01 0 0.02c-1.67-1.41-9.49-7.26-24.39 0.77-15.04 8.11-13.7 22.14-13.68 25.85q0.01 0.87 0.15 1.69 0.88 7.47 6.18 13.06 1.18 1.25 2.54 2.3l0.01-0.02c1.95 2.3 11.32 6.05 15.56 6.03q5.57-0.05 10.91-1.79 8.06-2.67 13.02-9.51c4.2-4.16 5.58-16.75 4.62-20.11z"/>
				<path id="&lt;Path&gt;" fill-rule="evenodd" class="s10" d="m292.83 304.27q-0.01-0.05-0.03-0.1 0.05-0.08 0.1-0.15-3.53-7.71-9.38-13.72-2.49-2.56-5.61-4.32 0 0.01 0 0.02c-1.67-1.41-9.49-7.26-24.39 0.77-15.04 8.11-13.7 22.14-13.68 25.85q0.01 0.87 0.15 1.69 0.88 7.47 6.18 13.06 1.18 1.25 2.54 2.3l0.01-0.02c1.95 2.3 11.32 6.05 15.56 6.03q5.57-0.05 10.91-1.79 8.06-2.67 13.02-9.51c4.2-4.16 5.58-16.75 4.62-20.11z"/>
				<path id="&lt;Path&gt;" fill-rule="evenodd" class="s11" d="m292.83 304.27q-0.01-0.05-0.03-0.1 0.05-0.08 0.1-0.15-3.53-7.71-9.38-13.72-2.49-2.56-5.61-4.32 0 0.01 0 0.02c-1.67-1.41-9.49-7.26-24.39 0.77-15.04 8.11-13.7 22.14-13.68 25.85q0.01 0.87 0.15 1.69 0.88 7.47 6.18 13.06 1.18 1.25 2.54 2.3l0.01-0.02c1.95 2.3 11.32 6.05 15.56 6.03q5.57-0.05 10.91-1.79 8.06-2.67 13.02-9.51c4.2-4.16 5.58-16.75 4.62-20.11z"/>
				<path id="&lt;Path&gt;" fill-rule="evenodd" class="s12" d="m292.83 304.27q-0.01-0.05-0.03-0.1 0.05-0.08 0.1-0.15-3.53-7.71-9.38-13.72-2.49-2.56-5.61-4.32 0 0.01 0 0.02c-1.67-1.41-9.49-7.26-24.39 0.77-15.04 8.11-13.7 22.14-13.68 25.85q0.01 0.87 0.15 1.69 0.88 7.47 6.18 13.06 1.18 1.25 2.54 2.3l0.01-0.02c1.95 2.3 11.32 6.05 15.56 6.03q5.57-0.05 10.91-1.79 8.06-2.67 13.02-9.51c4.2-4.16 5.58-16.75 4.62-20.11z"/>
				<path id="&lt;Path&gt;" fill-rule="evenodd" class="s13" d="m292.83 304.27q-0.01-0.05-0.03-0.1 0.05-0.08 0.1-0.15-3.53-7.71-9.38-13.72-2.49-2.56-5.61-4.32 0 0.01 0 0.02c-1.67-1.41-9.49-7.26-24.39 0.77-15.04 8.11-13.7 22.14-13.68 25.85q0.01 0.87 0.15 1.69 0.88 7.47 6.18 13.06 1.18 1.25 2.54 2.3l0.01-0.02c1.95 2.3 11.32 6.05 15.56 6.03q5.57-0.05 10.91-1.79 8.06-2.67 13.02-9.51c4.2-4.16 5.58-16.75 4.62-20.11z"/>
				<path id="&lt;Path&gt;" fill-rule="evenodd" class="s14" d="m292.83 304.27q-0.01-0.05-0.03-0.1 0.05-0.08 0.1-0.15-3.53-7.71-9.38-13.72-2.49-2.56-5.61-4.32 0 0.01 0 0.02c-1.67-1.41-9.49-7.26-24.39 0.77-15.04 8.11-13.7 22.14-13.68 25.85q0.01 0.87 0.15 1.69 0.88 7.47 6.18 13.06 1.18 1.25 2.54 2.3l0.01-0.02c1.95 2.3 11.32 6.05 15.56 6.03q5.57-0.05 10.91-1.79 8.06-2.67 13.02-9.51c4.2-4.16 5.58-16.75 4.62-20.11z"/>
				<path id="&lt;Path&gt;" fill-rule="evenodd" class="s15" d="m292.83 304.27q-0.01-0.05-0.03-0.1 0.05-0.08 0.1-0.15-3.53-7.71-9.38-13.72-2.49-2.56-5.61-4.32 0 0.01 0 0.02c-1.67-1.41-9.49-7.26-24.39 0.77-15.04 8.11-13.7 22.14-13.68 25.85q0.01 0.87 0.15 1.69 0.88 7.47 6.18 13.06 1.18 1.25 2.54 2.3l0.01-0.02c1.95 2.3 11.32 6.05 15.56 6.03q5.57-0.05 10.91-1.79 8.06-2.67 13.02-9.51c4.2-4.16 5.58-16.75 4.62-20.11z"/>
				<path id="&lt;Path&gt;" fill-rule="evenodd" class="s16" d="m292.83 304.27q-0.01-0.05-0.03-0.1 0.05-0.08 0.1-0.15-3.53-7.71-9.38-13.72-2.49-2.56-5.61-4.32 0 0.01 0 0.02c-1.67-1.41-9.49-7.26-24.39 0.77-15.04 8.11-13.7 22.14-13.68 25.85q0.01 0.87 0.15 1.69 0.88 7.47 6.18 13.06 1.18 1.25 2.54 2.3l0.01-0.02c1.95 2.3 11.32 6.05 15.56 6.03q5.57-0.05 10.91-1.79 8.06-2.67 13.02-9.51c4.2-4.16 5.58-16.75 4.62-20.11z"/>
				<path id="&lt;Path&gt;" fill-rule="evenodd" class="s17" d="m292.83 304.27q-0.01-0.05-0.03-0.1 0.05-0.08 0.1-0.15-3.53-7.71-9.38-13.72-2.49-2.56-5.61-4.32 0 0.01 0 0.02c-1.67-1.41-9.49-7.26-24.39 0.77-15.04 8.11-13.7 22.14-13.68 25.85q0.01 0.87 0.15 1.69 0.88 7.47 6.18 13.06 1.18 1.25 2.54 2.3l0.01-0.02c1.95 2.3 11.32 6.05 15.56 6.03q5.57-0.05 10.91-1.79 8.06-2.67 13.02-9.51c4.2-4.16 5.58-16.75 4.62-20.11z"/>
				<path id="&lt;Path&gt;" fill-rule="evenodd" class="s18" d="m292.83 304.27q-0.01-0.05-0.03-0.1 0.05-0.08 0.1-0.15-3.53-7.71-9.38-13.72-2.49-2.56-5.61-4.32 0 0.01 0 0.02c-1.67-1.41-9.49-7.26-24.39 0.77-15.04 8.11-13.7 22.14-13.68 25.85q0.01 0.87 0.15 1.69 0.88 7.47 6.18 13.06 1.18 1.25 2.54 2.3l0.01-0.02c1.95 2.3 11.32 6.05 15.56 6.03q5.57-0.05 10.91-1.79 8.06-2.67 13.02-9.51c4.2-4.16 5.58-16.75 4.62-20.11z"/>
			</g>
			<g id="&lt;Group&gt;">
				<path id="&lt;Path&gt;" fill-rule="evenodd" class="s19" d="m243.12 319.72c-1.32-1.2-4.45-3.9-3.78-17.36 0.42-1.85 6.31-11.03 12.14-14.59 5.72-3.48 12.15-5.21 16.64-5.13 1.21-0.08 3.84 12.7 3.81 16.82-0.08 11.62-6.76 17.74-15.47 21.06-6.51 2.47-11.04 1.3-13.34-0.8z"/>
				<path id="&lt;Path&gt;" fill-rule="evenodd" class="s20" d="m243.12 319.72c-1.32-1.2-4.45-3.9-3.78-17.36 0.42-1.85 6.31-11.03 12.14-14.59 5.72-3.48 12.15-5.21 16.64-5.13 1.21-0.08 3.84 12.7 3.81 16.82-0.08 11.62-6.76 17.74-15.47 21.06-6.51 2.47-11.04 1.3-13.34-0.8z"/>
				<path id="&lt;Path&gt;" fill-rule="evenodd" class="s21" d="m243.12 319.72c-1.32-1.2-4.45-3.9-3.78-17.36 0.42-1.85 6.31-11.03 12.14-14.59 5.72-3.48 12.15-5.21 16.64-5.13 1.21-0.08 3.84 12.7 3.81 16.82-0.08 11.62-6.76 17.74-15.47 21.06-6.51 2.47-11.04 1.3-13.34-0.8z"/>
				<path id="&lt;Path&gt;" fill-rule="evenodd" class="s22" d="m243.12 319.72c-1.32-1.2-4.45-3.9-3.78-17.36 0.42-1.85 6.31-11.03 12.14-14.59 5.72-3.48 12.15-5.21 16.64-5.13 1.21-0.08 3.84 12.7 3.81 16.82-0.08 11.62-6.76 17.74-15.47 21.06-6.51 2.47-11.04 1.3-13.34-0.8z"/>
				<path id="&lt;Path&gt;" fill-rule="evenodd" class="s23" d="m243.12 319.72c-1.32-1.2-4.45-3.9-3.78-17.36 0.42-1.85 6.31-11.03 12.14-14.59 5.72-3.48 12.15-5.21 16.64-5.13 1.21-0.08 3.84 12.7 3.81 16.82-0.08 11.62-6.76 17.74-15.47 21.06-6.51 2.47-11.04 1.3-13.34-0.8z"/>
				<path id="&lt;Path&gt;" fill-rule="evenodd" class="s24" d="m243.12 319.72c-1.32-1.2-4.45-3.9-3.78-17.36 0.42-1.85 6.31-11.03 12.14-14.59 5.72-3.48 12.15-5.21 16.64-5.13 1.21-0.08 3.84 12.7 3.81 16.82-0.08 11.62-6.76 17.74-15.47 21.06-6.51 2.47-11.04 1.3-13.34-0.8z"/>
			</g>
			<path id="&lt;Path&gt;" fill-rule="evenodd" class="s25" d="m301.28 300.57q-1.46-8.3-6.33-15.11 2.68 8.3-0.75 16.18-0.54 1.25-1.3 2.38-4.64 7.35-12.82 10.36c-4.37 1.66-8.68 0.56-11.97-1.94-1.73-1.32-2.64-3.02-2.64-3.02q0.36 1.51 0.99 2.94 0.32 0.67 0.64 1.35 2.22 3.65 5.75 6.03 6.95 4.65 15.36 4.64l0.14-0.03c1.27 0.05 0.99-0.11 2.28-0.26q0.51 0.01 1.02 0.01 3.91-0.04 7.7-0.97 1.2-2.83 1.8-5.85 1.65-8.3 0.13-16.71z"/>
			<path id="&lt;Path&gt;" fill-rule="evenodd" class="s26" d="m279.7 339.38q-8.61 1.72-15.42-3.7-0.34-0.29-0.67-0.6-6.29-5.86-7.28-14.47-0.36-6.41 3.15-11.76 0.17-0.27 0.36-0.54-6.25 5.64-8.92 13.62-1.61 3.84-2.19 7.62 0.01 0.01 0.03 0.02c-0.3 1.8-0.57 4.79-0.76 6.15q-0.49 4.01 0.02 8 0.07 0.53 0.14 1.05 0.78 0.31 1.58 0.6 7.9 2.87 16.3 1.99 8.52-0.91 16.22-4.59 7.84-3.73 12.45-11.02-6.31 6.01-15.01 7.63z"/>
			<path id="&lt;Path&gt;" fill-rule="evenodd" class="s27" d="m290.74 323.33l0.07-0.32q4.2-7.61 3.29-16.26-0.12-1.13-0.35-2.27 4.09-3.9 5.49-9.35 3.21 10.41 0.12 20.55-1.38 4.53-5.65 6.62-1.43 0.66-2.97 1.03z"/>
			<path id="&lt;Path&gt;" fill-rule="evenodd" class="s28" d="m248.73 329.55q5.46 4.66 12.92 5.88 0.5 0.07 0.99 0.15 5.07 5.69 12.64 6.65-12.12 6.7-24.91 2-1.82-4.08-2.37-8.51l0.71-6.05z"/>
			<path id="&lt;Path&gt;" fill-rule="evenodd" class="s29" d="m229.99 328.1q0.04-1.27 0.15-2.52 0.77-8.44 5.78-15.23-2.6 7.75-1.45 15.86 0.82 5.75 2.67 11.29-3.85-3.58-6.45-8.16-0.37-0.62-0.7-1.24z"/>
			<path id="&lt;Path&gt;" fill-rule="evenodd" class="s30" d="m259.96 276.63c-4.68-2.56-10.8-2.88-16.43-0.87q-3.36 1.15-6.19 3.3 5.71-5.49 13.36-7.85c9.39-2.9 17.08-2.03 22.72-0.57 1.22 0.45 3.28 3.83 1.91 7.46-1.24 3.29-5.75 4.96-7.84 4.98 0 0-2.85-3.89-7.53-6.45z"/>
			<path id="&lt;Path&gt;" fill-rule="evenodd" class="s31" d="m273.74 270.72l-0.32-0.08c2.34 4.13-3.33 8.94-6.63 11.5l0.76 1.02v0.02q4.69 7.18 3.4 15.65-0.32 2.09-1.23 3.97c1.25-0.74 2.14-1.8 2.72-2.55 3.24-4.21 5.05-8.98 5.47-14.27l0.3-4.19 0.01-0.02 0.48-9.34z"/>
			<g id="&lt;Group&gt;">
				<path id="&lt;Path&gt;" fill-rule="evenodd" class="s31" d="m247.45 290.93c5.86 0.23 10.51 2.78 13.54 7.64q0.17 0.26 0.35 0.57-7.93-3.18-15.5 1c-2.09 1.15-4.18 3.05-5.74 4.86-0.07-0.16 0.08-0.86 0.04-1.03 0.11-2.28 0.66-5.72 1.38-7.53l1.7-2.37 2.98-2.32z"/>
				<path id="&lt;Path&gt;" fill-rule="evenodd" class="s32" d="m247.45 290.93c5.86 0.23 10.51 2.78 13.54 7.64q0.17 0.26 0.35 0.57-7.93-3.18-15.5 1c-2.09 1.15-4.18 3.05-5.74 4.86-0.07-0.16 0.08-0.86 0.04-1.03 0.11-2.28 0.66-5.72 1.38-7.53l1.7-2.37 2.98-2.32z"/>
			</g>
			<g id="&lt;Group&gt;">
				<path id="&lt;Path&gt;" fill-rule="evenodd" class="s33" d="m235.92 310.35q-5.01 6.79-5.78 15.23-0.11 1.25-0.15 2.52-3.02-5.39-4.43-11.4-1.98-8.44-0.31-16.93 0.28-0.26 0.56-0.51c3.01-2.63 7.17-4.9 10.95-6.24 4.43-1.42 6.38 0.21 5.1 3.76-0.72 1.81-1.07 3.06-1.57 6 0.04 0.16-0.17 1.59-0.19 2.22l-0.75 0.84q-1.82 1.79-3.12 3.97-0.16 0.27-0.31 0.54z"/>
				<path id="&lt;Path&gt;" fill-rule="evenodd" class="s34" d="m235.92 310.35q-5.01 6.79-5.78 15.23-0.11 1.25-0.15 2.52-3.02-5.39-4.43-11.4-1.98-8.44-0.31-16.93 0.28-0.26 0.56-0.51c3.01-2.63 7.17-4.9 10.95-6.24 4.43-1.42 6.38 0.21 5.1 3.76-0.72 1.81-1.07 3.06-1.57 6 0.04 0.16-0.17 1.59-0.19 2.22l-0.75 0.84q-1.82 1.79-3.12 3.97-0.16 0.27-0.31 0.54z"/>
			</g>
			<path id="&lt;Path&gt;" fill-rule="evenodd" class="s35" d="m225.24 299.72c-0.22 0.79-0.41 2.3-0.5 3.07 0.82-1.13 4.94-6.05 10.6-9.24-5.31 2.01-8.66 4.82-10.1 6.17z"/>
			<path id="&lt;Path&gt;" fill-rule="evenodd" class="s36" d="m237.7 291.55c-1 3.92 0.31 8.61 2.85 8.61q0.01 0 0.01 0c1.68-7.39 3.92-14.67 8.03-20.87-4.86 2.14-9.39 6.43-10.89 12.26z"/>
			<path id="&lt;Path&gt;" fill-rule="evenodd" class="s37" d="m240.56 299.91c3.59 0 2.13-3.7 5.79-7.87-0.85-1.5-1.96-2.23-2.4-3.77-1.42 3.75-2.49 7.68-3.39 11.64z"/>
			<path id="&lt;Path&gt;" fill-rule="evenodd" class="s38" d="m259.68 278.44c-2.95-1.46-7.67-1.07-11.64 0.98-1.9 2.87-2.85 5.6-4.09 8.85 0.44 1.54 0.69 3.23 1.53 4.73 0.32-0.36 0.97-1.15 1.39-1.54 1.74-1.61 2.87-2.67 5.46-4.52 3.38-2.44 13.15-5.64 7.35-8.5z"/>
			<path id="&lt;Path&gt;" fill-rule="evenodd" class="s39" d="m240.08 305.05c-0.08-4.97 1.17-9.84 2.68-13.28 1.79-0.53 4.09-0.89 4.82-0.84-2 1.52-6.44 6.88-7.5 14.12z"/>
			<path id="&lt;Path&gt;" fill-rule="evenodd" class="s40" d="m248.38 344.9c-0.58-1.87-1-6.79-0.19-10.54 0.08 4.17 1.06 7.83 3.21 11.6-1.31-0.36-2.07-0.67-3.02-1.06z"/>
			<path id="&lt;Path&gt;" fill-rule="evenodd" class="s41" d="m267.49 283.08c-3.34-4.57-6.81-7.78-12.87-8.61-1.79-0.25-2.36-2.32-1.77-3.81 8.11-2.12 15.34-1.45 20.77 0.06 2.16 4.36 4.21 9.87 4.07 14.9-3-1.26-7.4-2.28-10.2-2.54z"/>
			<path id="&lt;Path&gt;" fill-rule="evenodd" class="s42" d="m301.05 317.75c-1.48 1.9-5.97 6.04-12.49 6.38 2.27 0.28 8.03-0.29 10.85-1.21 0.75-1.73 1.45-4.08 1.64-5.17z"/>
			<path id="&lt;Path&gt;" fill-rule="evenodd" class="s43" d="m241.48 294.6c-0.5 1.76-0.88 4.05-1.11 5.53 0.44 0.03 0.82-0.08 1.22-0.35 1.11-2.25 3.98-7.48 5.99-8.85-3.27-0.47-5.41 3.16-6.1 3.67z"/>
			<path id="&lt;Path&gt;" fill-rule="evenodd" class="s44" d="m288.31 324.46c1.85-2.88 2.55-5.12 3.3-7.38 0.4-1.18 0.8-0.77 0.52 1.84-0.27 2.5-0.44 3.23-1.68 6.32-1.4 3.49-3.82 1.85-2.14-0.78z"/>
			<path id="&lt;Path&gt;" fill-rule="evenodd" class="s45" d="m290.87 323.29l0.34-0.09c0 0 0.52-1.38 0.69-2.37-0.34 0.93-0.66 1.72-1.03 2.46z"/>
			<path id="&lt;Path&gt;" fill-rule="evenodd" class="s38" d="m288.15 324.81c-0.61 0.94-2.71 5.29-8.91 7.98-4.25 1.85 0.93 0.96 3.19 0.35 2.97-0.81 7.56-4.46 8.46-8.95-0.46 0.06-2.35 0.02-2.74 0.62z"/>
			<path id="&lt;Path&gt;" fill-rule="evenodd" class="s46" d="m290.72 324.18c-0.26 1.78-1.3 3.57-2.59 5.06-1.48 1.55-3.63 3-6.03 3.64-0.95 0.25-1.6-0.28-0.87-0.7 3.12-2.23 5.11-4.59 7.12-7.83l1.58-2.38c0.22-0.33 0.84-0.22 0.86 0.7 0.02 0.69-0.07 1.51-0.07 1.51z"/>
			<path id="&lt;Path&gt;" fill-rule="evenodd" class="s47" d="m264.91 279.35c1.2 2.12-3.58 7.13-10.7 11.18-7.12 4.06-13.87 5.62-15.08 3.49-1.21-2.12 3.58-7.13 10.7-11.18 7.11-4.06 13.86-5.62 15.08-3.49z"/>
			<path id="&lt;Path&gt;" fill-rule="evenodd" class="s48" d="m255.84 275.38c2.56 3.2-0.42 9.84-6.65 14.84-6.23 4.99-13.35 6.46-15.92 3.26-2.56-3.19 0.42-9.82 6.65-14.83 6.23-4.99 13.36-6.46 15.92-3.27z"/>
			<path id="&lt;Path&gt;" fill-rule="evenodd" class="s49" d="m238.18 297.31c-1.46-0.64-1.59-8.52 3.32-13.87 5.71-6.21 16.31-5.93 17.01-3.22 0.61 2.39-4.39 3.75-9.2 8.23-3.45 3.2-8.35 10.09-11.13 8.86z"/>
		</g>
		<g id="&lt;Group&gt;">
			<path id="&lt;Path&gt;" fill-rule="evenodd" class="s1" d="m186 155.69l-2.26 3.2 1.72 5.95-0.98 14.47-1.28 11.32 8.86 0.63 34.09 14.81c0 0 6.4-2.51 6.1-5.56-0.29-3.05 0.54-3.88 1.72-2.8 1.18 1.08 28.15-5.32 28.15-5.32l1.08-1.91c0 0 1.03-7.68-1.13-10.73-2.17-3.05-28.59-5.61-28.59-5.61l-0.69-0.05c0 0-0.34-7.97-3.98-11.51-3.64-3.54-42.81-6.89-42.81-6.89z"/>
			<g id="&lt;Group&gt;">
				<path id="&lt;Compound Path&gt;" class="s1" d="m191.89 188.44q-0.8 0-1.59 0.04c-7.95 0.36-14.99 2.71-20.36 6.79-5 3.79-9 9.17-11.59 15.56q-0.52 1.31-0.94 2.62 0.13-2.23-0.06-4.63c-0.88-11.44-9.16-18.35-22.72-18.96-8.25-0.38-17.48-0.85-26.4-1.32-4.44-0.23-8.76-0.45-12.77-0.65q-0.05 0-0.1 0.01c-0.69 0.09-0.65 0.83-0.63 1.06q-0.47 8.88-0.96 17.83c-0.91 16.86-1.86 34.29-2.62 51.37-0.01 0.27 0.2 0.51 0.47 0.52 9.48 0.64 18.11 1.09 26.4 1.38 0.26 0 0.49-0.18 0.52-0.45 0.29-2.89 0.42-6.11 0.55-9.21 0.13-3.3 0.27-6.68 0.6-9.75 1.25 3.24 2.6 6.46 3.92 9.59 1.34 3.18 2.73 6.47 3.98 9.74 0.07 0.19 0.25 0.31 0.45 0.32 9.17 0.31 26.6 1.08 27.47 1.17q0.18 0.04 0.36-0.05c0.22-0.13 0.31-0.4 0.21-0.63l-1.26-3.07c-3.43-8.35-6.98-16.98-10.11-25.7 5.34-1.55 9.23-5.46 11.22-10.98-0.97 12.01 4.36 23.35 11.62 29.71 6.49 5.69 18.31 11.43 30.08 11.43h0.01q1.29 0 2.56-0.09c13.44-0.98 24.85-9.26 30.54-22.14 6.41-14.52 1.04-30.77-7.58-39.32-7.13-7.06-20.27-12.19-31.27-12.19zm-7.37 39.26c-0.46-5.68 3.46-11.92 8.06-12.84q1.07-0.21 2.18-0.22c4.97 0 9.47 3.18 10.02 7.07 0.76 5.34-2.76 12.42-6.96 14.02q-1.37 0.52-2.96 0.52c-4.66 0-9.93-3.43-10.34-8.55zm-63.51-7.36q-0.14-0.01-0.27 0c0.02-2.39 0.16-4.71 0.3-6.95 0.12-1.99 0.24-4.05 0.28-6.17q0.9 0.03 1.67 0.02c1.49 0 2.68 0 3.72 0.5 1.73 0.81 2.92 3.24 2.97 6.04 0.04 2.26-0.72 5.08-2.98 6.24-0.67 0.34-1.33 0.48-2.21 0.48q-0.67 0-1.42-0.07-0.91-0.08-2.06-0.09z"/>
				<path id="&lt;Compound Path&gt;" class="s1" d="m301.66 214.35c-0.26-9.71-5.08-18.38-12.28-22.08-4.85-2.49-11.61-2.72-18.75-2.96-1.87-0.06-3.8-0.13-5.67-0.24-8.4-0.49-16.53-0.9-23.71-1.25l-2.48-0.13c-0.26 0-0.51 0.2-0.52 0.47-0.99 15.22-1.78 30.9-2.55 46.07q-0.58 11.62-1.2 23.2c-0.01 0.25 0.17 0.47 0.42 0.52 4.29 0.76 8.82 1.37 13.19 1.95 4.05 0.55 8.23 1.1 12.21 1.79q0.04 0 0.08 0 0.18 0 0.32-0.11 0.17-0.14 0.19-0.37c0.02-0.71-0.12-1.25-0.25-1.77q-0.01-0.05-0.03-0.11 0.01 0 0.01 0 0.26 0.04 0.49 0.04c0.13 0 0.53 0 0.78-0.29 0.1-0.13 0.21-0.34 0.18-0.66q0.09-1.84 0.17-3.68c0.2-4.48 0.41-9.1 0.77-13.51 3.1 0.01 5.95 0.22 8.71 0.44 2.48 0.18 4.82 0.36 7.07 0.36q0 0 0 0c2.7 0 4.9-0.26 6.92-0.82 9.88-2.72 16.28-13.51 15.93-26.86zm-37.46 3.07c0.14-3.15 0.29-6.4 0.59-9.43 2.24 0.02 4.02 0.05 5.43 0.73 3.24 1.56 4.13 5.35 3.59 8.41-0.49 2.71-2.4 6.01-6.17 6.37-0.59 0.06-1.15-0.01-1.78-0.08-0.54-0.07-1.15-0.14-1.84-0.14q-0.06 0-0.12 0c0.12-1.94 0.21-3.93 0.3-5.86z"/>
				<path id="&lt;Path&gt;" class="s1" d="m350.23 190.61c-12.3-0.6-23.59-1.11-35.71-1.69l-9.01-0.44c-0.27-0.02-0.51 0.2-0.53 0.47-1.08 16.19-1.91 32.91-2.72 49.09q-0.49 10.1-1.02 20.17c-0.01 0.28 0.2 0.51 0.47 0.53 8.56 0.55 17.38 1 25.91 1.43 6.88 0.35 15.44 0.58 22.38 1.06 0.24 0.02 0.5-0.12 0.53-0.46 0.26-3.54 0.42-7.35 0.56-11.04 0.11-3.15 0.11-6.14 0.3-8.89q0.02-0.21-0.12-0.37-0.14-0.15-0.35-0.16c-2.55-0.13-6.43-0.16-9-0.27-3.98-0.17-7.92-0.35-11.94-0.6 0.04-1.18 0.38-6.49 0.39-8.04 5.22 0.1 10 0.42 15.44 0.78 0.25 0.02 0.5-0.18 0.53-0.44 0.3-2.42 0.5-5.87 0.68-9.2 0.1-1.75 0.2-3.47 0.31-4.99 0.02-0.26-0.16-0.49-0.42-0.53-2.72-0.47-5.83-0.58-8.84-0.69-2.37-0.09-5.65-0.41-7.88-0.68 0.03-0.54 0.34-5.21 0.36-7.1 5.91 0.18 12.05 0.54 18.44 0.97 0.26 0.01 0.51-0.19 0.53-0.47 0.2-2.75 0.45-6.68 0.67-10.14 0.22-3.62 0.42-6.75 0.51-7.75q0.02-0.22-0.12-0.38-0.14-0.16-0.35-0.17z"/>
				<path id="&lt;Path&gt;" class="s1" d="m104.92 156.23c11.12 8.21 26.22 12.55 43.65 12.55 3.5 0 7.13-0.17 10.8-0.51 0.25-0.03 0.45-0.23 0.46-0.48l0.41-7.94c0.55-10.83 1.13-22.02 1.75-32.98q0.01-0.24-0.16-0.4-0.19-0.16-0.42-0.12c-2.76 0.47-5.49 0.71-8.11 0.71-13.85 0-22.59-6.49-23.37-17.37-0.48-6.71 1.06-12.03 4.58-15.82 3.9-4.19 10.18-6.4 18.15-6.4 2.96 0 6.1 0.31 9.33 0.92q0.22 0.04 0.4-0.1 0.17-0.14 0.19-0.36c0.33-5.23 0.73-10.47 1.12-15.54 0.53-6.91 1.08-14.05 1.44-21.26 0.01-0.23-0.14-0.45-0.37-0.51-5.79-1.61-12.57-2.47-19.6-2.47-12.62 0-25.07 2.63-33.29 7.04-17.54 9.38-33 33.08-28 64.85 2.41 15.28 9.68 27.79 21.04 36.19z"/>
				<path id="&lt;Path&gt;" class="s1" d="m355.04 63.29c-0.22-4.16-0.43-8.29-0.67-12.21q-0.01-0.39 0.02-0.86c0.06-1.07 0.13-2.39-1.05-3.09q-0.14-0.08-0.29-0.07c-19.32 1.14-40.69 2.27-67.26 3.54q-0.11 0.01-0.21 0.06-0.09 0.01-0.47 0.01c-0.62 0-1.4-0.04-1.55-0.06q-0.08-0.01-0.16 0c-2.12 0.21-4.4 0.31-6.6 0.41-1.97 0.09-4 0.17-5.93 0.35q-0.16-0.11-0.42-0.11c-0.46 0-1.12 0.33-2.07 0.83-0.35 0.19-0.71 0.38-0.94 0.47-8.26-0.54-16.78-0.96-25.02-1.37q-3.87-0.19-7.73-0.39c-0.25-0.01-0.51 0.2-0.53 0.48q-0.58 11.11-1.14 22.24c-0.9 17.93-1.84 36.46-2.95 54.51q-0.55-0.07-1.03-0.07c-1.62 0-2.42 0.63-3.13 1.19q-0.27 0.22-0.57 0.43c-1.37 0.91-3.36 1.44-5.46 1.44-1.8 0-3.52-0.39-4.85-1.08-0.61-0.32-1.15-0.91-1.66-1.48-0.64-0.7-1.3-1.43-2.16-1.7-0.49-0.16-1.13-0.11-1.7-0.04-0.42 0.05-0.82 0.09-1.08 0.02 1.4-24.99 2.45-50.63 3.13-76.21 0.01-0.27-0.2-0.5-0.47-0.52-8.5-0.43-17.08-0.94-25.38-1.42q-8.15-0.48-16.32-0.94c-0.27 0-0.52 0.2-0.53 0.47-0.95 14.84-1.68 29.7-2.38 44.06-0.49 9.92-1 20.17-1.56 30.11-0.89 15.81 4.42 36.24 34.81 43.8 5.88 1.46 11.95 2.21 18.03 2.21 17.69 0 33.82-6.34 42.08-16.55 8.71-10.74 9.2-27.69 9.72-45.63 0.2-7.11 0.41-14.46 1.16-21.49 2.64-0.21 5.38-0.34 8.04-0.46 2.63-0.13 5.34-0.26 7.95-0.46 1.28 24.94 2.78 53.83 4.3 81.92 0.02 0.28 0.25 0.48 0.53 0.47 13.87-0.68 29.59-1.46 44.85-2.36 0.28-0.01 0.49-0.25 0.48-0.53q-0.63-11.91-1.27-23.8c-1-18.45-2.03-37.52-2.86-56.46q-0.01-0.02-0.01-0.05c-0.01-0.16-0.09-1.36-0.13-2.08 1.61 0.08 6.17 0.3 7.19 0.3h0.16c2.11-0.18 4.35-0.28 6.51-0.37 3.03-0.13 6.17-0.27 9.04-0.62 0.27-0.03 0.46-0.26 0.45-0.53-0.33-5.2-0.63-10.85-0.91-16.31z"/>
			</g>
			<path id="&lt;Path&gt;" fill-rule="evenodd" class="s1" d="m90.41 174.44h14.54v7.87h-14.54z"/>
			<path id="&lt;Path&gt;" fill-rule="evenodd" class="s1" d="m111.27 174.44h14.54v7.87h-14.54z"/>
			<path id="&lt;Path&gt;" fill-rule="evenodd" class="s1" d="m132.13 174.44h14.54v7.87h-14.54z"/>
			<path id="&lt;Path&gt;" fill-rule="evenodd" class="s1" d="m152.99 174.44h14.54v7.87h-14.54z"/>
			<path id="&lt;Path&gt;" fill-rule="evenodd" class="s1" d="m173.85 174.44h14.54v7.87h-14.54z"/>
			<path id="&lt;Path&gt;" fill-rule="evenodd" class="s1" d="m194.71 174.44h14.54v7.87h-14.54z"/>
			<path id="&lt;Path&gt;" fill-rule="evenodd" class="s1" d="m215.57 174.44h14.54v7.87h-14.54z"/>
			<path id="&lt;Path&gt;" fill-rule="evenodd" class="s1" d="m236.43 174.44h14.54v7.87h-14.54z"/>
			<path id="&lt;Path&gt;" fill-rule="evenodd" class="s1" d="m257.29 174.44h14.54v7.87h-14.54z"/>
			<path id="&lt;Compound Path&gt;" fill-rule="evenodd" class="s50" d="m278.15 174.44h14.54v7.87h-14.54zm20.86 7.87h14.54v-7.87h-14.54zm20.87 0h14.53v-7.87h-14.53zm20.86 0h14.53v-7.88h-14.53zm21.05 0h14.54v-7.87h-14.54z"/>
			<path id="&lt;Compound Path&gt;" class="s49" d="m198.16 188.42q-3.25 0-6.49 0c-10.19 0.99-17.85 4.34-24.01 10.03-6.74 6.22-11.48 16.46-10.63 29.13 0.65 9.64 5.13 17.5 10.43 23.02 5.58 5.81 13.43 9.67 23.4 10.24 0.04 0 3.44 0.22 6.91-0.01 10.53-0.7 18.42-4.8 24.2-11.02 5.7-6.14 9.99-14 10.23-24.99 0.25-11.03-4.25-19.3-9.84-25.39-5.76-6.26-13.54-10.41-24.2-11.01z"/>
			<path id="&lt;Compound Path&gt;" class="s49" d="m134.89 189.87q-0.07 0-0.14 0c-3.27 0.02-6.94 0.03-10.76 0.03-3.14 0-6.39-0.01-9.6-0.01-3.22-0.01-6.41-0.01-9.43-0.01-4.54 0-8.71 0.01-12.03 0.04 0 23.16-0.04 46.18-0.04 69.34q13.28 0 26.56 0 0-10.33 0-20.67c3.42 6.75 6.57 13.77 9.84 20.67q13.67 0 27.35 0c-3.7-9.36-8.82-18.96-12.84-28.65 11.17-3.05 14.83-19.3 9.59-30.21-2.92-6.09-10.05-10.53-18.5-10.53zm-15.44 31.01c0.03-0.03-0.04-14.13-0.01-14.13q1.09-0.05 1.97-0.05c3.67 0 4.9 0.65 6.17 2.38 1.98 2.68 1.81 6.95 0.43 9.28-1.37 2.29-3.43 2.55-6.18 2.55q-1.11-0.01-2.38-0.03z"/>
			<g id="&lt;Group&gt;">
				<path id="&lt;Compound Path&gt;" class="s49" d="m267.42 189.83c-2.99 0-5.99 0.02-8.57 0.02-7.36 0-15.02 0.05-22.53 0.05-0.23 0.03-0.2 0.2-0.18 0.48q0 34.44 0 68.88 13.28 0 26.56 0c0.13-6.04-0.06-12.24-0.01-18.24q2.03-0.06 4.01-0.06 1.84 0.01 3.62 0.03 1.79 0.02 3.5 0.02c5.58 0 10.55-0.28 14.46-2.22 6.68-3.31 11.72-12.92 11.68-23.43-0.06-13.52-8.74-23.6-18.23-25.07-2.53-0.39-8.4-0.46-14.31-0.46zm-1.95 34.57q-1.28 0-2.77-0.37c0.13-5.38-0.26-11.28 0.2-16.33q1.38-0.32 2.58-0.32c5.17 0 7.76 4.25 7.77 8.51 0 4.25-2.59 8.51-7.78 8.51z"/>
				<path id="&lt;Compound Path&gt;" class="s51" d="m267.42 189.83c-2.99 0-5.99 0.02-8.57 0.02-7.36 0-15.02 0.05-22.53 0.05-0.23 0.03-0.2 0.2-0.18 0.48q0 34.44 0 68.88 13.28 0 26.56 0c0.13-6.04-0.06-12.24-0.01-18.24q2.03-0.06 4.01-0.06 1.84 0.01 3.62 0.03 1.79 0.02 3.5 0.02c5.58 0 10.55-0.28 14.46-2.22 6.68-3.31 11.72-12.92 11.68-23.43-0.06-13.52-8.74-23.6-18.23-25.07-2.53-0.39-8.4-0.46-14.31-0.46zm-1.95 34.57q-1.28 0-2.77-0.37c0.13-5.38-0.26-11.28 0.2-16.33q1.38-0.32 2.58-0.32c5.17 0 7.76 4.25 7.77 8.51 0 4.25-2.59 8.51-7.78 8.51z"/>
			</g>
			<path id="&lt;Path&gt;" class="s49" d="m349.08 189.79q-22.92 0-45.84 0c-0.46 22.76-0.07 46.38-0.2 69.47q23.51 0 47.03 0 0-9.94 0-19.88-10.23 0-20.47 0 0-4.52 0-9.05 8.07 0 16.14 0c0.46-4.4 0.06-9.64 0.2-14.37q-8.17 0-16.34 0 0-4.13 0-8.26 9.65 0 19.29 0c0.46-5.58 0.06-12 0.19-17.91z"/>
			<path id="&lt;Path&gt;" class="s49" d="m197.19 152.35q-0.29 0-0.58 0.04c-3.48 0.57-8.23 1.94-9.99 4.01-1.36 1.61-1.4 4.03-1.24 7.92q-0.02 0-0.03 0c-2.12 0-3.56 1.74-3.89 4.21q0 1.28 0 2.56c0.13 3.93 0.04 7.89 3.16 8.73-0.35 7.43-0.41 14.06 1.97 18.74 1.9 3.75 7.05 6.52 10.59 6.69 0.73 0 1.47 0.04 2.21 0.04q0.79 0.01 1.56-0.08c1.16-0.16 2.28-0.33 3.07-0.66 0.33 0.29 1.64 0.69 2.53 0.69q0.33 0 0.55-0.08c4.85-1.72 9.01-0.77 10.34-4.75 0.27 0.88 0.96 1.87 2.3 2.43 0.8 0.33 1.73 0.39 2.72 0.39q0.53 0 1.08-0.01 0.54-0.02 1.1-0.02 0.23 0 0.46 0c1.18 0.03 2.1 0.15 2.95 0.15 1.14 0 2.15-0.22 3.47-1.18 0.96-0.69 1.36-2.56 1.55-3.82 2.02 3.5 5.74 6.07 10.91 6.87 0.6 0.1 1.32 0.16 2.05 0.16 0.7 0 1.4-0.05 1.97-0.16 7.25-1.38 11.55-4.5 13.99-8.45 0.18-0.28 0.6-1.46 0.44-2.07-0.3-1.5-0.37-2.05-1.87-4.72 1.03-1.37 1.59-2.92 1.77-4.52 1.01-9.13-3.13-18.65-9.64-21.06-1.73-0.64-3.38-0.92-4.94-0.92-6.93 0-12.23 5.55-14.74 10.76-1.57-4.51-4.2-8.37-8.26-10.04-1.57-0.64-3.06-0.91-4.51-0.91-4.78 0-10.3 1.04-11.43 2.09-0.46-1.63-3.79-2.38-6.69-2.95 1-4.48 0.8-9.61-3.74-10.04-0.39 0-0.79-0.04-1.19-0.04z"/>
			<path id="&lt;Path&gt;" fill-rule="evenodd" class="s1" d="m268.36 204.16c6.34 0 11.47 5.13 11.47 11.46 0 6.33-5.13 11.46-11.47 11.46-6.33 0-11.46-5.13-11.46-11.46 0-6.33 5.13-11.46 11.46-11.46z"/>
			<path id="&lt;Path&gt;" fill-rule="evenodd" class="s1" d="m194.79 213.21c6.35 0 11.5 5.15 11.5 11.49 0 6.35-5.15 11.5-11.5 11.5-6.35 0-11.49-5.15-11.49-11.5 0-6.34 5.14-11.49 11.49-11.49z"/>
			<path id="&lt;Compound Path&gt;" class="s52" d="m141.63 46.7c-36.68 2.21-56.84 24.89-57.18 59.21q0 1.28 0 2.56c0.72 33.81 23.08 55.89 58.33 57.94q4.83 0 9.66 0c3.71-0.36 7.55-0.59 10.83-1.38-0.23-13.69-0.66-27.19-0.98-40.79-2.97 0.62-5.95 0.93-8.81 0.93-8.52 0-16.08-2.73-19.76-8.02-3.56-5.12-4.45-14.51-1.97-20.7 3.25-8.14 12.41-11.95 23.33-11.95 2.33 0 5.5 0.28 7.21 0.52-0.04 0 1.19-36.73 1.18-36.65-7-1.72-18.45-1.88-21.84-1.67zm58.73 2.29c-12.58 0-33.66 0.03-33.61 0.04q0 30.66 0 61.49c0 6.76-0.42 13.59 0.39 19.9 1.49 11.49 7.2 20.24 14.98 26.02 7.72 5.73 18.5 9.33 31.33 10.05q3.94 0 7.88 0c17.96-0.72 36.23-8.11 43.75-22.87 5.55-10.89 4.43-23.57 4.54-37.82 0.1-13.14 0-24.44-0.01-24.45 0 0 0.81 0 2.08 0 4.9 0 16.81 0.01 16.84 0.03 0 27.46 0 55.08 0 82.54q22.56 0 45.13 0 0-41.28 0-82.57c0-0.01 20.68-0.01 20.72-0.01 0-10.71 0.04-21.47 0.04-32.18-40.79 0-81.47 0.04-122.25 0.04 0 25.88 0.01 51.8 0.01 77.68h-3.51c0 0-1.87 2.36-4.55 2.97q-1.63 0.37-3.14 0.36c-3.63 0-6.6-1.52-8.05-3.74-1.18 0-2.46 0.02-3.64 0.02 0-25.69 0.22-51.79 0.22-77.48-0.02-0.01-3.82-0.02-9.15-0.02z"/>
			<path id="&lt;Path&gt;" fill-rule="evenodd" class="s1" d="m220.74 114.61c6.33 0 11.46 5.13 11.46 11.46 0 6.33-5.13 11.46-11.46 11.46-6.33 0-11.46-5.13-11.46-11.46 0-6.33 5.13-11.46 11.46-11.46z"/>
			<path id="&lt;Path&gt;" class="s1" d="m198.41 156.81q-0.69 0-1.38 0c-2.65 0.5-5.02 1.27-6.89 2.56 0 2.88-0.1 6-0.1 8.89-1.26 0.25-2.71 0.24-3.9 0.56 0 0.45 0.1 5.54 0.29 7.08 0.06-0.05 2.53-0.17 3.03-0.17q0.08 0 0.09 0.01c-0.07 10.56-2.92 24.14 8.07 25.12 0.98 0 4.06-0.01 4.59-0.13 0-2.43 0-8.13-0.03-8.17q-1.38 0.43-2.44 0.43c-0.93 0-1.65-0.24-2.09-0.69-0.99-1.01-1.04-3.14-0.95-5.77 0.13-3.74 0.14-8.17 0.26-10.79 0 0 4.45 0.16 5.26 0.16q0.11 0 0.12 0c0.28-2.75 0.19-5.68 0.2-8.69-1.58 0.1-3.74 0.36-5.15 0.42 0.35-3.52 0.58-7.39 1.02-10.82z"/>
			<path id="&lt;Path&gt;" class="s1" d="m220.38 167.87c-3.82 0-8 3.62-13.83 5.65-0.04 9.22-0.12 18.43 0.09 27.4 0.13 0 4.34-1.22 6.57-1.62 0.23-6.59 0.12-13.92 0.3-20.59 1.4-0.68 3.51-2.2 5.43-2.2q0.74-0.01 1.46 0.32c1.69 0.81 1.84 5.35 1.85 8.29 0.02 4.8-0.33 10.44-0.46 13.64 1.48 0.1 4.79 0.13 6.89 0.39 1.04-11.21 4.15-26.66-6.3-30.9q-0.97-0.38-2-0.38z"/>
			<path id="&lt;Compound Path&gt;" class="s1" d="m247.86 168.22q-0.47 0-0.88 0.03c-13.19 1.16-17.94 30.91-2.36 32.67q1.67 0 3.34 0c4.57-0.75 7.4-3.23 10.23-5.71q0-0.09 0-0.19c-0.86-1.76-1.81-3.44-2.55-5.31-3.13 1.04-5.68 3.36-9.64 3.36q-1.02 0.01-2.17-0.22c-1.17-0.92-1.54-2.66-1.38-4.92 4.94-0.37 10.38-0.25 14.96-0.98 1.54-7.89-0.9-16.22-6.46-18.22-1.05-0.38-2.13-0.51-3.09-0.51zm-4.43 13.42c0.1-2.11 1.72-5.95 4.14-5.95q0.4 0 0.82 0.15c0.8 0.28 1.85 2.38 1.93 4.81q-3.23 0.71-6.89 0.99z"/>
			<path id="&lt;Path&gt;" fill-rule="evenodd" class="s1" d="m199.28 221.95c-2.7-0.47-6.99-2.09-8.54-7.83q-0.59 0.26-1.2 0.64c-1.57 1-2.33 2.14-2.33 2.14 0 0 4.66 5.7 12.07 5.05z"/>
			<path id="&lt;Path&gt;" fill-rule="evenodd" class="s1" d="m227.87 134.96c-1.31-2.16-3.54-4.35-5.17-4.38-2.77-0.04-4.55 3.54-5.33 6.17 0.04 0.02 1 0.35 1.05 0.38q0.37-0.58 0.39-0.58c0 0-0.18 0.4 2.16 0.57 4.04 0.3 6.9-2.16 6.9-2.16q0 0 0 0z"/>
			<path id="&lt;Compound Path&gt;" fill-rule="evenodd" class="s1" d="m69.77 179.88c20.54-11.33 48.27-26.97 48.27-26.97 0 0-4.14-3.99-8.99-4.43-5.59-0.51-9.35 1.23-21.14 8.11-11.96 6.98-14.89 8.57-18.51 15.2-0.32 0.59-0.89 1.24-1.62 1.92q-0.15-0.08-0.25-0.14c-2.51-1.38-2.96-5.09-2.87-8.1q0.45-0.76 0.83-1.57c4.15-8.9 0.3-19.47-8.59-23.62-8.9-4.15-19.48-0.3-23.63 8.59-4.14 8.9-0.29 19.48 8.6 23.63 3.73 1.73 7.74 2.07 11.46 1.21 1.12 0.02 2.16 0.09 2.77 0.28 1.6 0.48 4.29 1.76 6.82 3.3-2.59 1.6-5.28 2.94-6.82 3.41-0.47 0.14-1.21 0.26-2.04 0.36-3.43-0.58-7.06-0.16-10.45 1.42-8.89 4.15-12.74 14.72-8.59 23.62 4.14 8.9 14.72 12.75 23.62 8.6 8.89-4.15 12.74-14.73 8.59-23.63q-1.03-2.19-2.53-3.96c0.18-2.46 0.88-4.93 2.83-6q0.12-0.07 0.25-0.14 0.68 0.7 1.04 1.35c3.62 6.62 7.13 8.8 19.09 15.77 11.79 6.88 15.55 8.62 21.14 8.11 4.85-0.43 8.99-4.43 8.99-4.43l-41.37-23.15zm-30.25-28.09c2.48-5.34 8.82-7.64 14.16-5.16 5.33 2.49 7.64 8.83 5.15 14.17-2.48 5.33-8.83 7.64-14.16 5.15-5.33-2.49-7.64-8.83-5.15-14.16zm15.9 56.56c-5.34 2.48-11.67 0.18-14.16-5.16-2.49-5.33-0.18-11.67 5.15-14.16 5.34-2.49 11.68-0.18 14.16 5.15 2.49 5.34 0.18 11.68-5.15 14.17z"/>
		</g>
		<g id="&lt;Group&gt;">
			<path id="&lt;Path&gt;" class="s1" d="m265.55 223.08q0-0.05-0.01-0.1 0-0.02 0-0.04c-0.08-1.4-0.23-3.32-0.55-5.53q-0.03 0.03-0.05 0.07c-0.47-2.92-1.27-6.36-2.62-9.77-2.24 1.51-4.25 4.92-4.25 7.76v16.05 15.33 17.04 7.71 0.13h7.54v-0.28-18.46-17.84-9.87c0 0 0.02-0.82-0.06-2.2z"/>
			<g id="&lt;Group&gt;">
				<path id="&lt;Path&gt;" fill-rule="evenodd" class="s53" d="m258.03 246.7v17.09c2.18-1.98 5.67-6.63 7.62-10.57v-17.89c-2.04 3.09-5.31 8.32-7.62 11.37z"/>
				<path id="&lt;Path&gt;" fill-rule="evenodd" class="s54" d="m265 217.47c-0.48-2.94-1.29-6.42-2.67-9.86-2.26 1.51-4.3 4.92-4.3 7.76v15.72c1.65-4.81 4.35-10.24 6.97-13.62z"/>
			</g>
			<path id="&lt;Path&gt;" fill-rule="evenodd" class="s55" d="m259.16 227.89c0.33-2.02 0.89-3.6 1.72-5.2 0.63-1.22 2.3-3.32 3.14-3.99-1.63 2.35-2.93 4.99-4.86 9.19z"/>
			<path id="&lt;Path&gt;" fill-rule="evenodd" class="s55" d="m264.82 236.7c-1.64 2.59-4.07 6.2-5.7 8.64 1.34-1.26 2.93-2.9 3.9-4.45 0.96-1.55 1.59-3.4 1.8-4.19z"/>
			<path id="&lt;Path&gt;" fill-rule="evenodd" class="s1" d="m261.89 268.84c3.47 0 6.29 0.91 6.29 2.03 0 1.12-2.82 2.03-6.29 2.03-3.48 0-6.3-0.91-6.3-2.03 0-1.12 2.82-2.03 6.3-2.03z"/>
		</g>
		<path id="&lt;Path&gt;" class="s56" d="m220.96 148.38c-3.45 11.59-9.82 19.93-14.21 18.62-4.39-1.31-5.15-11.77-1.69-23.36 3.45-11.59 9.82-19.93 14.21-18.62 4.39 1.31 5.15 11.77 1.69 23.36z"/>
		<path id="&lt;Path&gt;" class="s57" d="m226.35 139.51c-1.31 4.4-5.76 6.96-9.93 5.71-4.18-1.24-6.5-5.82-5.19-10.22 1.32-4.4 5.76-6.96 9.94-5.72 4.17 1.25 6.49 5.83 5.18 10.23z"/>
		<path id="&lt;Path&gt;" class="s58" d="m202.95 200.47c4.24-15.26 11.36-26.62 15.9-25.35 4.54 1.26 4.78 14.66 0.54 29.92-4.25 15.27-11.37 26.62-15.91 25.36-4.54-1.26-4.78-14.66-0.53-29.93z"/>
		<path id="&lt;Path&gt;" class="s59" d="m218.07 172.83c-1.89 29.9-6.44 53.94-10.16 53.71-3.73-0.24-5.22-24.67-3.33-54.56 1.89-29.9 6.44-53.95 10.17-53.71 3.72 0.23 5.21 24.66 3.32 54.56z"/>
		<g id="&lt;Group&gt;">
			<path id="&lt;Path&gt;" class="s1" d="m225.1 130.18c-4.74-6.46-13.06-2.16-15.18 5.45-0.53 1.9-1.16 3.93-1.54 5.95-0.46 2.6-0.73 4.37-1.03 6.62-0.31 2.3-0.62 6.22-0.85 10.46-0.11 2.04-0.06 4.13-0.08 6.13-0.04 5.01 0.02 9.27 0.02 9.27 0 0 0.02 6.82 0.02 8.97 0 1.41-0.1 8.54-0.12 10.01-0.02 2.11 0.16 4.53-0.09 6.87-0.3 2.98-1.1 5.85-1.8 7.8-0.34 0.96-0.81 2.09-1.8 3.29-1.14 1.37-2.64 2.32-3.5 2.63-2.82 0.99-5.42-0.24-5.42-0.24 0 0-2.1 0-4.27 1.38-1.57 1-2.36 2.14-2.36 2.14 0 0 5.06 5.24 11.97 5.02 1.14-0.04 4.34-0.6 6.43-2.04 2.32-1.6 4.18-3.83 5.55-7.08 0.63-1.49 1.26-3.42 1.64-5.66 0.51-3.06 0.79-5.78 0.78-9.67-0.01-3.66-0.28-5.66-0.28-7.3 0-0.27 0.2-7.15 0.19-8.11 0-0.01-0.04-7.93-0.06-9.63-0.02-1.51 0.09-9.77 0.09-9.77 0.03-0.65 0-3.58 0.17-6.07 0.19-2.87 0.46-3.98 1.05-7.93q0.07-0.43 0.13-0.84c1.27-7.98 3.02-10.9 3.49-11.78 0.73 0.54 1.5 0.99 2.57 1.07 4.05 0.3 6.9-2.16 6.9-2.16 0 0-0.22-1.51-2.62-4.78z"/>
			<g id="&lt;Group&gt;">
				<path id="&lt;Path&gt;" fill-rule="evenodd" class="s60" d="m218.34 133.98c0.96-1.84 2.37-3.43 4.22-3.4 1.62 0.03 3.85 2.22 5.16 4.38-0.01-0.06-0.21-1.59-2.54-4.83-4.85-6.72-13.25-2.54-15.49 5.62q-0.78 2.87-1.34 5.92c1.35-4.05 6.94-7.91 9.99-7.69z"/>
				<path id="&lt;Path&gt;" fill-rule="evenodd" class="s61" d="m218.34 133.98c0.96-1.84 2.37-3.43 4.22-3.4 1.62 0.03 3.85 2.22 5.16 4.38-0.01-0.06-0.21-1.59-2.54-4.83-4.85-6.72-13.25-2.54-15.49 5.62q-0.78 2.87-1.34 5.92c1.35-4.05 6.94-7.91 9.99-7.69z"/>
			</g>
			<path id="&lt;Path&gt;" fill-rule="evenodd" class="s62" d="m206.41 174.11c0.88-3.68 5.58-10.9 7.03-11.45 0.16-4.18 0.5-9.33 1.2-14-1.62 0.69-7.36 6.61-8.16 10.09-0.37 7.65-0.14 13.77-0.07 15.36q0 0 0 0z"/>
			<g id="&lt;Group&gt;">
				<path id="&lt;Path&gt;" fill-rule="evenodd" class="s63" d="m211.09 212.78c-4.72 5.67-11.48 3.24-11.94 0.82-2.84 0.94-5.41-0.25-5.41-0.25 0 0-1.44 0.02-3.15 0.77 0.33 1.27 1.98 6.76 8.59 7.83q1.62-0.06 3.37-0.58c4.18-1.29 6.87-4.61 8.54-8.59z"/>
				<path id="&lt;Path&gt;" fill-rule="evenodd" class="s64" d="m211.09 212.78c-4.72 5.67-11.48 3.24-11.94 0.82-2.84 0.94-5.41-0.25-5.41-0.25 0 0-1.44 0.02-3.15 0.77 0.33 1.27 1.98 6.76 8.59 7.83q1.62-0.06 3.37-0.58c4.18-1.29 6.87-4.61 8.54-8.59z"/>
			</g>
			<path id="&lt;Path&gt;" fill-rule="evenodd" class="s65" d="m213.4 181.98c-1.02 3.03-5.7 7.88-7.08 11.1q-0.01 0.96-0.02 1.96c-0.07 4.68-0.61 9.25-1.9 12.69 4.15-2.83 6.83-7.9 9.09-10.29-0.01-5.09-0.05-10.56-0.07-13.52-0.01-0.27-0.01-0.98-0.02-1.94z"/>
		</g>
	</g>
	<g id="(R)">
		<path id="&lt;Compound Path&gt;" class="s1" d="m358.46 190.38c-2.93-0.03-4.07 1.71-4.33 4.01-0.3 2.68 1.46 4.22 3.93 4.27 2.73 0.05 4.17-0.72 4.43-3.6 0.19-2.19-1.85-4.65-4.03-4.68zm-1.05 1.31c3.75-0.79 4.99 5.24 2.02 5.78-1.45 0.28-3.47-0.16-3.96-1.96-0.38-1.47 0.59-3.54 1.94-3.82zm0.31 1.05c-0.91 0.22-0.95 1.05-1.06 1.94-0.07 0.56-0.32 1.56 0.28 1.58 0.31 0.01 0.55 0.07 0.63-0.14 0.14-0.34 0.04-1 0.38-1.02 0.44-0.04 0.7 0.82 1.02 1.11 0.22 0.2 1.04 0.29 1.19-0.28-0.18-0.5-0.88-0.9-1.06-1.39 0-0.11 0.65-0.3 0.5-1.21-0.14-0.79-1.3-0.73-1.88-0.59zm0.11 1.08c0.02-0.38 0.82-0.51 0.81-0.07-0.01 0.23-0.66 0.41-0.83 0.3 0-0.03 0.01-0.15 0.02-0.23z"/>
	</g>
</svg>