<svg version="1.2" xmlns="http://www.w3.org/2000/svg" viewBox="0 -0.42480000000000473 453.5435 198.4248" width="454" height="199">
	<defs>
		<radialGradient id="g1" cx="0" cy="0" r="1" gradientUnits="userSpaceOnUse" gradientTransform="matrix(30.05,0,0,29.613,285.112,141.39)">
			<stop offset=".65" stop-color="#fcf4b7"/>
			<stop offset=".855" stop-color="#fce695"/>
			<stop offset="1" stop-color="#db7627"/>
		</radialGradient>
		<radialGradient id="g2" cx="0" cy="0" r="1" gradientUnits="userSpaceOnUse" gradientTransform="matrix(-8.323,8.56,-5.001,-4.862,265.161,138.191)">
			<stop offset="0" stop-color="#db6627"/>
			<stop offset="1" stop-color="#f27b1f" stop-opacity="0"/>
		</radialGradient>
		<radialGradient id="g3" cx="0" cy="0" r="1" gradientUnits="userSpaceOnUse" gradientTransform="matrix(-1.545,10.334,-4.954,-0.74,275.685,160.837)">
			<stop offset="0" stop-color="#db6627"/>
			<stop offset="1" stop-color="#f27b1f" stop-opacity="0"/>
		</radialGradient>
		<radialGradient id="g4" cx="0" cy="0" r="1" gradientUnits="userSpaceOnUse" gradientTransform="matrix(-12.453,43.111,-4.634,-1.339,312.853,125.943)">
			<stop offset="0" stop-color="#db6627"/>
			<stop offset="1" stop-color="#f27b1f" stop-opacity="0"/>
		</radialGradient>
		<radialGradient id="g5" cx="0" cy="0" r="1" gradientUnits="userSpaceOnUse" gradientTransform="matrix(-1.259,15.086,-4.128,-0.345,294.795,120.008)">
			<stop offset="0" stop-color="#db6627"/>
			<stop offset="1" stop-color="#f27b1f" stop-opacity="0"/>
		</radialGradient>
		<radialGradient id="g6" cx="0" cy="0" r="1" gradientUnits="userSpaceOnUse" gradientTransform="matrix(14.188,5.279,-1.228,3.302,285.451,163.782)">
			<stop offset="0" stop-color="#db6627"/>
			<stop offset="1" stop-color="#f27b1f" stop-opacity="0"/>
		</radialGradient>
		<radialGradient id="g7" cx="0" cy="0" r="1" gradientUnits="userSpaceOnUse" gradientTransform="matrix(-16.931,-19.408,2.646,-2.308,290.776,169.158)">
			<stop offset=".365" stop-color="#db6e14"/>
			<stop offset="1" stop-color="#f27b1f" stop-opacity="0"/>
		</radialGradient>
		<radialGradient id="g8" cx="0" cy="0" r="1" gradientUnits="userSpaceOnUse" gradientTransform="matrix(-8.11,-31.122,4.294,-1.119,279.495,155.941)">
			<stop offset=".365" stop-color="#db6e14"/>
			<stop offset="1" stop-color="#f27b1f" stop-opacity="0"/>
		</radialGradient>
		<radialGradient id="g9" cx="0" cy="0" r="1" gradientUnits="userSpaceOnUse" gradientTransform="matrix(-8.498,-4.608,1.897,-3.498,294.101,148.995)">
			<stop offset=".365" stop-color="#db6e14"/>
			<stop offset="1" stop-color="#f27b1f" stop-opacity="0"/>
		</radialGradient>
		<radialGradient id="g10" cx="0" cy="0" r="1" fx="-0.28" fy="-0.003" gradientUnits="userSpaceOnUse" gradientTransform="matrix(19.738,-1.025,.297,5.725,308.286,147.017)">
			<stop offset=".365" stop-color="#db6e14"/>
			<stop offset="1" stop-color="#f27b1f" stop-opacity="0"/>
		</radialGradient>
		<radialGradient id="g11" cx="0" cy="0" r="1" gradientUnits="userSpaceOnUse" gradientTransform="matrix(-14.248,12.585,-3.335,-3.776,309.548,139.188)">
			<stop offset=".365" stop-color="#db6e14"/>
			<stop offset="1" stop-color="#f27b1f" stop-opacity="0"/>
		</radialGradient>
		<radialGradient id="g12" cx="0" cy="0" r="1" gradientUnits="userSpaceOnUse" gradientTransform="matrix(-4.7,11.355,-4.223,-1.748,293.385,128.707)">
			<stop offset=".365" stop-color="#db6e14"/>
			<stop offset="1" stop-color="#f27b1f" stop-opacity="0"/>
		</radialGradient>
		<radialGradient id="g13" cx="0" cy="0" r="1" gradientUnits="userSpaceOnUse" gradientTransform="matrix(-13.78,-2.987,.918,-4.235,302.477,151.689)">
			<stop offset=".365" stop-color="#db6e14"/>
			<stop offset="1" stop-color="#f27b1f" stop-opacity="0"/>
		</radialGradient>
		<radialGradient id="g14" cx="0" cy="0" r="1" gradientUnits="userSpaceOnUse" gradientTransform="matrix(2.39,-9.376,2.967,.756,275.833,155.057)">
			<stop offset=".365" stop-color="#db6e14"/>
			<stop offset="1" stop-color="#f27b1f" stop-opacity="0"/>
		</radialGradient>
		<radialGradient id="g15" cx="0" cy="0" r="1" gradientUnits="userSpaceOnUse" gradientTransform="matrix(9.988,-14.758,11.292,7.642,278.863,137.293)">
			<stop offset=".766" stop-color="#db6e14"/>
			<stop offset="1" stop-color="#f27b1f" stop-opacity="0"/>
		</radialGradient>
		<radialGradient id="g16" cx="0" cy="0" r="1" gradientUnits="userSpaceOnUse" gradientTransform="matrix(-8.253,-26.24,3.857,-1.213,290.465,123.616)">
			<stop offset=".348" stop-color="#db6627"/>
			<stop offset="1" stop-color="#f27b1f" stop-opacity="0"/>
		</radialGradient>
		<radialGradient id="g17" cx="0" cy="0" r="1" gradientUnits="userSpaceOnUse" gradientTransform="matrix(2.819,-12.727,3.093,.685,292.359,129.804)">
			<stop offset=".348" stop-color="#db6627"/>
			<stop offset="1" stop-color="#f27b1f" stop-opacity="0"/>
		</radialGradient>
		<radialGradient id="g18" cx="0" cy="0" r="1" gradientUnits="userSpaceOnUse" gradientTransform="matrix(3.625,-10.665,4.341,1.475,277.837,151.27)">
			<stop offset=".348" stop-color="#db6627"/>
			<stop offset="1" stop-color="#f27b1f" stop-opacity="0"/>
		</radialGradient>
		<radialGradient id="g19" cx="0" cy="0" r="1" gradientUnits="userSpaceOnUse" gradientTransform="matrix(14.804,-7.159,1.929,3.988,265.209,137.254)">
			<stop offset=".348" stop-color="#db6627"/>
			<stop offset="1" stop-color="#f27b1f" stop-opacity="0"/>
		</radialGradient>
		<radialGradient id="g20" cx="0" cy="0" r="1" fx="-0.303" fy="0" gradientUnits="userSpaceOnUse" gradientTransform="matrix(-20.84,-0.826,.213,-5.378,265.463,131.614)">
			<stop offset=".348" stop-color="#db6627"/>
			<stop offset="1" stop-color="#f27b1f" stop-opacity="0"/>
		</radialGradient>
		<linearGradient id="g21" x2="1" gradientUnits="userSpaceOnUse" gradientTransform="matrix(-13.378,-3.459,2.107,-8.15,288.322,171.911)">
			<stop offset="0" stop-color="#e62117"/>
			<stop offset="1" stop-color="#fa4f14"/>
		</linearGradient>
		<radialGradient id="g22" cx="0" cy="0" r="1" gradientUnits="userSpaceOnUse" gradientTransform="matrix(3.631,-6.259,2.125,1.233,270.351,131.999)">
			<stop offset="0" stop-color="#b31e10"/>
			<stop offset="1" stop-color="#b31e10" stop-opacity="0"/>
		</radialGradient>
		<linearGradient id="g23" x2="1" gradientUnits="userSpaceOnUse" gradientTransform="matrix(14.589,-10.33,20.693,29.224,239.19,126.999)">
			<stop offset="0" stop-color="#e63f15"/>
			<stop offset="1" stop-color="#ec8333"/>
		</linearGradient>
		<radialGradient id="g24" cx="0" cy="0" r="1" gradientUnits="userSpaceOnUse" gradientTransform="matrix(.145,5.089,-2.862,.082,267.632,131.512)">
			<stop offset=".621" stop-color="#ffbe6b"/>
			<stop offset="1" stop-color="#ffbe6b" stop-opacity="0"/>
		</radialGradient>
		<radialGradient id="g25" cx="0" cy="0" r="1" fx="-0.465" fy="-0.102" gradientUnits="userSpaceOnUse" gradientTransform="matrix(9.325,-5.311,1.586,2.785,276.676,124.923)">
			<stop offset="0" stop-color="#fffde3"/>
			<stop offset="1" stop-color="#fff9a3" stop-opacity="0"/>
		</radialGradient>
		<radialGradient id="g26" cx="0" cy="0" r="1" fx="-0.054" fy="-0.005" gradientUnits="userSpaceOnUse" gradientTransform="matrix(8.164,-6.548,3.356,4.184,271.015,123.191)">
			<stop offset=".317" stop-color="#fffde3"/>
			<stop offset="1" stop-color="#fff9a3" stop-opacity="0"/>
		</radialGradient>
		<linearGradient id="g27" x2="1" gradientUnits="userSpaceOnUse" gradientTransform="matrix(0,-45.767,7.595,0,232.665,79.83)">
			<stop offset="0" stop-color="#ffffff"/>
			<stop offset="1" stop-color="#d4e1ef"/>
		</linearGradient>
		<radialGradient id="g28" cx="0" cy="0" r="1" fx=".034" fy="-0.698" gradientUnits="userSpaceOnUse" gradientTransform="matrix(6.497,.445,-2.254,32.921,285.478,88.816)">
			<stop offset="0" stop-color="#241712"/>
			<stop offset="1" stop-color="#633b2a" stop-opacity="0"/>
		</radialGradient>
		<linearGradient id="g29" x2="1" gradientUnits="userSpaceOnUse" gradientTransform="matrix(-72.818,0,0,-5.805,417.938,104.62)">
			<stop offset="0" stop-color="#000000" stop-opacity="0"/>
			<stop offset="1" stop-color="#000000"/>
		</linearGradient>
		<radialGradient id="g30" cx="0" cy="0" r="1" fx="-0.026" fy="-0.534" gradientUnits="userSpaceOnUse" gradientTransform="matrix(3.321,.029,-0.114,13.143,284.542,72.559)">
			<stop offset="0" stop-color="#cc9560"/>
			<stop offset="1" stop-color="#7a4d27"/>
		</radialGradient>
		<linearGradient id="g31" x2="1" gradientUnits="userSpaceOnUse" gradientTransform="matrix(6.196,0,0,22.727,281.625,80.823)">
			<stop offset="0" stop-color="#7a4d27"/>
			<stop offset=".456" stop-color="#c99360"/>
			<stop offset="1" stop-color="#7a4d27"/>
		</linearGradient>
	</defs>
	<style>
		.s0 { fill: #b57f4d } 
		.s1 { fill: #000000 } 
		.s2 { fill: #fcf4b7 } 
		.s3 { fill: url(#g1) } 
		.s4 { fill: url(#g2) } 
		.s5 { fill: url(#g3) } 
		.s6 { fill: url(#g4) } 
		.s7 { fill: url(#g5) } 
		.s8 { fill: url(#g6) } 
		.s9 { fill: #f6c254 } 
		.s10 { fill: url(#g7) } 
		.s11 { fill: url(#g8) } 
		.s12 { fill: url(#g9) } 
		.s13 { fill: url(#g10) } 
		.s14 { fill: url(#g11) } 
		.s15 { fill: url(#g12) } 
		.s16 { fill: url(#g13) } 
		.s17 { fill: url(#g14) } 
		.s18 { fill: url(#g15) } 
		.s19 { fill: #f09d41 } 
		.s20 { fill: url(#g16) } 
		.s21 { fill: url(#g17) } 
		.s22 { fill: url(#g18) } 
		.s23 { fill: url(#g19) } 
		.s24 { fill: url(#g20) } 
		.s25 { fill: #c73421 } 
		.s26 { fill: #c92c1a } 
		.s27 { fill: #e3341e } 
		.s28 { fill: url(#g21) } 
		.s29 { fill: #7d291b } 
		.s30 { fill: #c72a21 } 
		.s31 { fill: #93291d } 
		.s32 { fill: url(#g22) } 
		.s33 { fill: url(#g23) } 
		.s34 { fill: url(#g24) } 
		.s35 { fill: #c72512 } 
		.s36 { fill: #f7b868 } 
		.s37 { fill: #cd220e } 
		.s38 { fill: #fffbcf } 
		.s39 { fill: #cc250e } 
		.s40 { fill: #8a291c } 
		.s41 { fill: #e22e17 } 
		.s42 { fill: #86291c } 
		.s43 { fill: #e8451c } 
		.s44 { fill: #de2b23 } 
		.s45 { fill: #ea6028 } 
		.s46 { fill: #fefdfc } 
		.s47 { fill: url(#g25) } 
		.s48 { fill: url(#g26) } 
		.s49 { fill: #ffffff } 
		.s50 { fill: url(#g27) } 
		.s51 { fill: url(#g28) } 
		.s52 { fill: url(#g29) } 
		.s53 { fill: url(#g30) } 
		.s54 { fill: url(#g31) } 
		.s55 { fill: #dba469 } 
	</style>
	<g id="Zone" style="display: none">
		<path id="&lt;Path&gt;" fill-rule="evenodd" class="s0" d="m453.54 198h-453.54v-198.42h453.54z"/>
	</g>
	<g id="CTR Logo">
		<g id="&lt;Group&gt;">
			<g id="&lt;Group&gt;">
				<path id="&lt;Path&gt;" fill-rule="evenodd" class="s1" d="m299.67 114.71q5.41 2.96 9.26 7.78 3.88 4.87 5.43 10.92 1.52 5.93 1.23 12.01-0.27 6.12-3.17 11.54-2.96 5.53-7.92 9.39-5.05 3.93-11.32 5.26-6.24 1.22-12.54 0.36-6.22-0.83-11.46-4.26-5.21-3.4-8.71-8.54-3.44-5.01-4.86-10.92-1.5-6.14-0.73-12.41 0.77-6.36 4.21-11.77 2.69-4.13 6.53-7.22 4.76-3.81 10.77-5 5.64-1.2 11.38-0.73 6.32 0.54 11.9 3.59z"/>
				<g id="&lt;Group&gt;">
					<path id="&lt;Path&gt;" fill-rule="evenodd" class="s2" d="m292.76 112.98q-6.27-1.64-12.69-0.58-0.33 0.05-0.66 0.1-1.88 0.4-3.73 0.91-5.74 1.77-10.04 5.89-4.91 3.94-7.36 9.73-1.2 2.82-1.73 5.84-1.26 6.38 0.23 12.73 1.07 4.52 3.34 8.56 0.25 0.47 0.52 0.94 1.95 3.44 4.85 6.13 0.22 0.2 0.44 0.42 3.44 3.26 7.84 5.05 0.59 0.23 1.19 0.44 5.94 2.16 12.25 1.5 6.41-0.68 12.19-3.45 5.9-2.8 9.37-8.29 0.26-0.34 0.51-0.69 1.91-2.67 2.97-5.78 0.9-2.13 1.36-4.4 1.23-6.24 0.09-12.56-1.1-6.23-4.75-11.35-1.69-2.51-3.95-4.54-0.31-0.25-0.6-0.52-3.22-2.83-7.16-4.53-0.26-0.1-0.51-0.21l-3.73-1.29z"/>
					<path id="&lt;Path&gt;" fill-rule="evenodd" class="s3" d="m292.76 112.98q-6.27-1.64-12.69-0.58-0.33 0.05-0.66 0.1-1.88 0.4-3.73 0.91-5.74 1.77-10.04 5.89-4.91 3.94-7.36 9.73-1.2 2.82-1.73 5.84-1.26 6.38 0.23 12.73 1.07 4.52 3.34 8.56 0.25 0.47 0.52 0.94 1.95 3.44 4.85 6.13 0.22 0.2 0.44 0.42 3.44 3.26 7.84 5.05 0.59 0.23 1.19 0.44 5.94 2.16 12.25 1.5 6.41-0.68 12.19-3.45 5.9-2.8 9.37-8.29 0.26-0.34 0.51-0.69 1.91-2.67 2.97-5.78 0.9-2.13 1.36-4.4 1.23-6.24 0.09-12.56-1.1-6.23-4.75-11.35-1.69-2.51-3.95-4.54-0.31-0.25-0.6-0.52-3.22-2.83-7.16-4.53-0.26-0.1-0.51-0.21l-3.73-1.29z"/>
					<path id="&lt;Path&gt;" fill-rule="evenodd" class="s4" d="m292.76 112.98q-6.27-1.64-12.69-0.58-0.33 0.05-0.66 0.1-1.88 0.4-3.73 0.91-5.74 1.77-10.04 5.89-4.91 3.94-7.36 9.73-1.2 2.82-1.73 5.84-1.26 6.38 0.23 12.73 1.07 4.52 3.34 8.56 0.25 0.47 0.52 0.94 1.95 3.44 4.85 6.13 0.22 0.2 0.44 0.42 3.44 3.26 7.84 5.05 0.59 0.23 1.19 0.44 5.94 2.16 12.25 1.5 6.41-0.68 12.19-3.45 5.9-2.8 9.37-8.29 0.26-0.34 0.51-0.69 1.91-2.67 2.97-5.78 0.9-2.13 1.36-4.4 1.23-6.24 0.09-12.56-1.1-6.23-4.75-11.35-1.69-2.51-3.95-4.54-0.31-0.25-0.6-0.52-3.22-2.83-7.16-4.53-0.26-0.1-0.51-0.21l-3.73-1.29z"/>
					<path id="&lt;Path&gt;" fill-rule="evenodd" class="s5" d="m292.76 112.98q-6.27-1.64-12.69-0.58-0.33 0.05-0.66 0.1-1.88 0.4-3.73 0.91-5.74 1.77-10.04 5.89-4.91 3.94-7.36 9.73-1.2 2.82-1.73 5.84-1.26 6.38 0.23 12.73 1.07 4.52 3.34 8.56 0.25 0.47 0.52 0.94 1.95 3.44 4.85 6.13 0.22 0.2 0.44 0.42 3.44 3.26 7.84 5.05 0.59 0.23 1.19 0.44 5.94 2.16 12.25 1.5 6.41-0.68 12.19-3.45 5.9-2.8 9.37-8.29 0.26-0.34 0.51-0.69 1.91-2.67 2.97-5.78 0.9-2.13 1.36-4.4 1.23-6.24 0.09-12.56-1.1-6.23-4.75-11.35-1.69-2.51-3.95-4.54-0.31-0.25-0.6-0.52-3.22-2.83-7.16-4.53-0.26-0.1-0.51-0.21l-3.73-1.29z"/>
					<path id="&lt;Path&gt;" fill-rule="evenodd" class="s6" d="m292.76 112.98q-6.27-1.64-12.69-0.58-0.33 0.05-0.66 0.1-1.88 0.4-3.73 0.91-5.74 1.77-10.04 5.89-4.91 3.94-7.36 9.73-1.2 2.82-1.73 5.84-1.26 6.38 0.23 12.73 1.07 4.52 3.34 8.56 0.25 0.47 0.52 0.94 1.95 3.44 4.85 6.13 0.22 0.2 0.44 0.42 3.44 3.26 7.84 5.05 0.59 0.23 1.19 0.44 5.94 2.16 12.25 1.5 6.41-0.68 12.19-3.45 5.9-2.8 9.37-8.29 0.26-0.34 0.51-0.69 1.91-2.67 2.97-5.78 0.9-2.13 1.36-4.4 1.23-6.24 0.09-12.56-1.1-6.23-4.75-11.35-1.69-2.51-3.95-4.54-0.31-0.25-0.6-0.52-3.22-2.83-7.16-4.53-0.26-0.1-0.51-0.21l-3.73-1.29z"/>
					<path id="&lt;Path&gt;" fill-rule="evenodd" class="s7" d="m292.76 112.98q-6.27-1.64-12.69-0.58-0.33 0.05-0.66 0.1-1.88 0.4-3.73 0.91-5.74 1.77-10.04 5.89-4.91 3.94-7.36 9.73-1.2 2.82-1.73 5.84-1.26 6.38 0.23 12.73 1.07 4.52 3.34 8.56 0.25 0.47 0.52 0.94 1.95 3.44 4.85 6.13 0.22 0.2 0.44 0.42 3.44 3.26 7.84 5.05 0.59 0.23 1.19 0.44 5.94 2.16 12.25 1.5 6.41-0.68 12.19-3.45 5.9-2.8 9.37-8.29 0.26-0.34 0.51-0.69 1.91-2.67 2.97-5.78 0.9-2.13 1.36-4.4 1.23-6.24 0.09-12.56-1.1-6.23-4.75-11.35-1.69-2.51-3.95-4.54-0.31-0.25-0.6-0.52-3.22-2.83-7.16-4.53-0.26-0.1-0.51-0.21l-3.73-1.29z"/>
					<path id="&lt;Path&gt;" fill-rule="evenodd" class="s8" d="m292.76 112.98q-6.27-1.64-12.69-0.58-0.33 0.05-0.66 0.1-1.88 0.4-3.73 0.91-5.74 1.77-10.04 5.89-4.91 3.94-7.36 9.73-1.2 2.82-1.73 5.84-1.26 6.38 0.23 12.73 1.07 4.52 3.34 8.56 0.25 0.47 0.52 0.94 1.95 3.44 4.85 6.13 0.22 0.2 0.44 0.42 3.44 3.26 7.84 5.05 0.59 0.23 1.19 0.44 5.94 2.16 12.25 1.5 6.41-0.68 12.19-3.45 5.9-2.8 9.37-8.29 0.26-0.34 0.51-0.69 1.91-2.67 2.97-5.78 0.9-2.13 1.36-4.4 1.23-6.24 0.09-12.56-1.1-6.23-4.75-11.35-1.69-2.51-3.95-4.54-0.31-0.25-0.6-0.52-3.22-2.83-7.16-4.53-0.26-0.1-0.51-0.21l-3.73-1.29z"/>
				</g>
				<g id="&lt;Group&gt;">
					<path id="&lt;Path&gt;" fill-rule="evenodd" class="s9" d="m307.38 138.25q-0.01-0.04-0.03-0.08 0.05-0.05 0.08-0.11-2.65-5.8-7.06-10.33-1.87-1.92-4.22-3.25 0 0.01 0 0.02c-1.26-1.06-7.14-5.47-18.36 0.58-11.32 6.1-10.31 16.67-10.29 19.45q0.01 0.66 0.11 1.28 0.66 5.62 4.65 9.83 0.89 0.94 1.91 1.73l0.01-0.02c1.47 1.73 8.52 4.56 11.71 4.54q4.19-0.04 8.21-1.35 6.07-2 9.8-7.15c3.16-3.14 4.2-12.61 3.48-15.14z"/>
					<path id="&lt;Path&gt;" fill-rule="evenodd" class="s10" d="m307.38 138.25q-0.01-0.04-0.03-0.08 0.05-0.05 0.08-0.11-2.65-5.8-7.06-10.33-1.87-1.92-4.22-3.25 0 0.01 0 0.02c-1.26-1.06-7.14-5.47-18.36 0.58-11.32 6.1-10.31 16.67-10.29 19.45q0.01 0.66 0.11 1.28 0.66 5.62 4.65 9.83 0.89 0.94 1.91 1.73l0.01-0.02c1.47 1.73 8.52 4.56 11.71 4.54q4.19-0.04 8.21-1.35 6.07-2 9.8-7.15c3.16-3.14 4.2-12.61 3.48-15.14z"/>
					<path id="&lt;Path&gt;" fill-rule="evenodd" class="s11" d="m307.38 138.25q-0.01-0.04-0.03-0.08 0.05-0.05 0.08-0.11-2.65-5.8-7.06-10.33-1.87-1.92-4.22-3.25 0 0.01 0 0.02c-1.26-1.06-7.14-5.47-18.36 0.58-11.32 6.1-10.31 16.67-10.29 19.45q0.01 0.66 0.11 1.28 0.66 5.62 4.65 9.83 0.89 0.94 1.91 1.73l0.01-0.02c1.47 1.73 8.52 4.56 11.71 4.54q4.19-0.04 8.21-1.35 6.07-2 9.8-7.15c3.16-3.14 4.2-12.61 3.48-15.14z"/>
					<path id="&lt;Path&gt;" fill-rule="evenodd" class="s12" d="m307.38 138.25q-0.01-0.04-0.03-0.08 0.05-0.05 0.08-0.11-2.65-5.8-7.06-10.33-1.87-1.92-4.22-3.25 0 0.01 0 0.02c-1.26-1.06-7.14-5.47-18.36 0.58-11.32 6.1-10.31 16.67-10.29 19.45q0.01 0.66 0.11 1.28 0.66 5.62 4.65 9.83 0.89 0.94 1.91 1.73l0.01-0.02c1.47 1.73 8.52 4.56 11.71 4.54q4.19-0.04 8.21-1.35 6.07-2 9.8-7.15c3.16-3.14 4.2-12.61 3.48-15.14z"/>
					<path id="&lt;Path&gt;" fill-rule="evenodd" class="s13" d="m307.38 138.25q-0.01-0.04-0.03-0.08 0.05-0.05 0.08-0.11-2.65-5.8-7.06-10.33-1.87-1.92-4.22-3.25 0 0.01 0 0.02c-1.26-1.06-7.14-5.47-18.36 0.58-11.32 6.1-10.31 16.67-10.29 19.45q0.01 0.66 0.11 1.28 0.66 5.62 4.65 9.83 0.89 0.94 1.91 1.73l0.01-0.02c1.47 1.73 8.52 4.56 11.71 4.54q4.19-0.04 8.21-1.35 6.07-2 9.8-7.15c3.16-3.14 4.2-12.61 3.48-15.14z"/>
					<path id="&lt;Path&gt;" fill-rule="evenodd" class="s14" d="m307.38 138.25q-0.01-0.04-0.03-0.08 0.05-0.05 0.08-0.11-2.65-5.8-7.06-10.33-1.87-1.92-4.22-3.25 0 0.01 0 0.02c-1.26-1.06-7.14-5.47-18.36 0.58-11.32 6.1-10.31 16.67-10.29 19.45q0.01 0.66 0.11 1.28 0.66 5.62 4.65 9.83 0.89 0.94 1.91 1.73l0.01-0.02c1.47 1.73 8.52 4.56 11.71 4.54q4.19-0.04 8.21-1.35 6.07-2 9.8-7.15c3.16-3.14 4.2-12.61 3.48-15.14z"/>
					<path id="&lt;Path&gt;" fill-rule="evenodd" class="s15" d="m307.38 138.25q-0.01-0.04-0.03-0.08 0.05-0.05 0.08-0.11-2.65-5.8-7.06-10.33-1.87-1.92-4.22-3.25 0 0.01 0 0.02c-1.26-1.06-7.14-5.47-18.36 0.58-11.32 6.1-10.31 16.67-10.29 19.45q0.01 0.66 0.11 1.28 0.66 5.62 4.65 9.83 0.89 0.94 1.91 1.73l0.01-0.02c1.47 1.73 8.52 4.56 11.71 4.54q4.19-0.04 8.21-1.35 6.07-2 9.8-7.15c3.16-3.14 4.2-12.61 3.48-15.14z"/>
					<path id="&lt;Path&gt;" fill-rule="evenodd" class="s16" d="m307.38 138.25q-0.01-0.04-0.03-0.08 0.05-0.05 0.08-0.11-2.65-5.8-7.06-10.33-1.87-1.92-4.22-3.25 0 0.01 0 0.02c-1.26-1.06-7.14-5.47-18.36 0.58-11.32 6.1-10.31 16.67-10.29 19.45q0.01 0.66 0.11 1.28 0.66 5.62 4.65 9.83 0.89 0.94 1.91 1.73l0.01-0.02c1.47 1.73 8.52 4.56 11.71 4.54q4.19-0.04 8.21-1.35 6.07-2 9.8-7.15c3.16-3.14 4.2-12.61 3.48-15.14z"/>
					<path id="&lt;Path&gt;" fill-rule="evenodd" class="s17" d="m307.38 138.25q-0.01-0.04-0.03-0.08 0.05-0.05 0.08-0.11-2.65-5.8-7.06-10.33-1.87-1.92-4.22-3.25 0 0.01 0 0.02c-1.26-1.06-7.14-5.47-18.36 0.58-11.32 6.1-10.31 16.67-10.29 19.45q0.01 0.66 0.11 1.28 0.66 5.62 4.65 9.83 0.89 0.94 1.91 1.73l0.01-0.02c1.47 1.73 8.52 4.56 11.71 4.54q4.19-0.04 8.21-1.35 6.07-2 9.8-7.15c3.16-3.14 4.2-12.61 3.48-15.14z"/>
					<path id="&lt;Path&gt;" fill-rule="evenodd" class="s18" d="m307.38 138.25q-0.01-0.04-0.03-0.08 0.05-0.05 0.08-0.11-2.65-5.8-7.06-10.33-1.87-1.92-4.22-3.25 0 0.01 0 0.02c-1.26-1.06-7.14-5.47-18.36 0.58-11.32 6.1-10.31 16.67-10.29 19.45q0.01 0.66 0.11 1.28 0.66 5.62 4.65 9.83 0.89 0.94 1.91 1.73l0.01-0.02c1.47 1.73 8.52 4.56 11.71 4.54q4.19-0.04 8.21-1.35 6.07-2 9.8-7.15c3.16-3.14 4.2-12.61 3.48-15.14z"/>
				</g>
				<g id="&lt;Group&gt;">
					<path id="&lt;Path&gt;" fill-rule="evenodd" class="s19" d="m269.96 149.88c-0.99-0.9-3.34-2.94-2.84-13.07 0.32-1.39 4.75-8.3 9.14-10.98 4.3-2.62 9.14-3.92 12.52-3.86 0.91-0.06 2.89 9.56 2.87 12.66-0.06 8.75-5.09 13.35-11.65 15.85-4.89 1.86-8.3 0.98-10.04-0.6z"/>
					<path id="&lt;Path&gt;" fill-rule="evenodd" class="s20" d="m269.96 149.88c-0.99-0.9-3.34-2.94-2.84-13.07 0.32-1.39 4.75-8.3 9.14-10.98 4.3-2.62 9.14-3.92 12.52-3.86 0.91-0.06 2.89 9.56 2.87 12.66-0.06 8.75-5.09 13.35-11.65 15.85-4.89 1.86-8.3 0.98-10.04-0.6z"/>
					<path id="&lt;Path&gt;" fill-rule="evenodd" class="s21" d="m269.96 149.88c-0.99-0.9-3.34-2.94-2.84-13.07 0.32-1.39 4.75-8.3 9.14-10.98 4.3-2.62 9.14-3.92 12.52-3.86 0.91-0.06 2.89 9.56 2.87 12.66-0.06 8.75-5.09 13.35-11.65 15.85-4.89 1.86-8.3 0.98-10.04-0.6z"/>
					<path id="&lt;Path&gt;" fill-rule="evenodd" class="s22" d="m269.96 149.88c-0.99-0.9-3.34-2.94-2.84-13.07 0.32-1.39 4.75-8.3 9.14-10.98 4.3-2.62 9.14-3.92 12.52-3.86 0.91-0.06 2.89 9.56 2.87 12.66-0.06 8.75-5.09 13.35-11.65 15.85-4.89 1.86-8.3 0.98-10.04-0.6z"/>
					<path id="&lt;Path&gt;" fill-rule="evenodd" class="s23" d="m269.96 149.88c-0.99-0.9-3.34-2.94-2.84-13.07 0.32-1.39 4.75-8.3 9.14-10.98 4.3-2.62 9.14-3.92 12.52-3.86 0.91-0.06 2.89 9.56 2.87 12.66-0.06 8.75-5.09 13.35-11.65 15.85-4.89 1.86-8.3 0.98-10.04-0.6z"/>
					<path id="&lt;Path&gt;" fill-rule="evenodd" class="s24" d="m269.96 149.88c-0.99-0.9-3.34-2.94-2.84-13.07 0.32-1.39 4.75-8.3 9.14-10.98 4.3-2.62 9.14-3.92 12.52-3.86 0.91-0.06 2.89 9.56 2.87 12.66-0.06 8.75-5.09 13.35-11.65 15.85-4.89 1.86-8.3 0.98-10.04-0.6z"/>
				</g>
				<path id="&lt;Path&gt;" fill-rule="evenodd" class="s25" d="m313.74 135.47q-1.1-6.25-4.76-11.38 2.01 6.25-0.57 12.18-0.41 0.94-0.98 1.79-3.49 5.53-9.65 7.8c-3.28 1.25-6.53 0.42-9.01-1.46-1.3-0.99-1.98-2.27-1.98-2.27q0.27 1.14 0.74 2.21 0.24 0.5 0.49 1.02 1.66 2.75 4.32 4.53 5.23 3.51 11.56 3.5l0.11-0.03c0.95 0.04 0.74-0.08 1.71-0.2q0.39 0.01 0.77 0.02 2.95-0.04 5.79-0.74 0.91-2.13 1.37-4.4 1.23-6.24 0.09-12.57z"/>
				<path id="&lt;Path&gt;" fill-rule="evenodd" class="s26" d="m297.5 164.68q-6.48 1.29-11.61-2.79-0.25-0.21-0.5-0.45-4.74-4.41-5.48-10.89-0.27-4.82 2.37-8.85 0.13-0.21 0.27-0.41-4.7 4.24-6.71 10.26-1.22 2.88-1.65 5.73 0.01 0.01 0.02 0.01c-0.23 1.35-0.43 3.61-0.57 4.63q-0.37 3.02 0.02 6.03 0.05 0.39 0.1 0.78 0.58 0.24 1.19 0.45 5.94 2.16 12.26 1.5 6.42-0.68 12.22-3.45 5.89-2.81 9.37-8.3-4.76 4.52-11.3 5.75z"/>
				<path id="&lt;Path&gt;" fill-rule="evenodd" class="s27" d="m305.81 152.59l0.05-0.23q3.16-5.73 2.47-12.24-0.08-0.85-0.26-1.71 3.08-2.94 4.13-7.04 2.42 7.84 0.09 15.47-1.04 3.41-4.25 4.98-1.08 0.5-2.23 0.77z"/>
				<path id="&lt;Path&gt;" fill-rule="evenodd" class="s28" d="m274.19 157.28q4.11 3.51 9.72 4.42 0.38 0.06 0.75 0.11 3.81 4.29 9.51 5.01-9.12 5.04-18.75 1.5-1.37-3.07-1.78-6.4l0.53-4.55z"/>
				<path id="&lt;Path&gt;" fill-rule="evenodd" class="s29" d="m260.09 156.18q0.02-0.95 0.11-1.89 0.57-6.36 4.34-11.46-1.95 5.83-1.08 11.93 0.61 4.33 2 8.5-2.9-2.7-4.85-6.14-0.27-0.47-0.52-0.94z"/>
				<path id="&lt;Path&gt;" fill-rule="evenodd" class="s30" d="m282.64 117.45c-3.52-1.93-8.13-2.17-12.37-0.66q-2.52 0.87-4.66 2.48 4.3-4.13 10.06-5.9c7.07-2.18 12.86-1.53 17.1-0.43 0.92 0.34 2.47 2.88 1.44 5.61-0.93 2.48-4.33 3.74-5.91 3.75 0 0-2.14-2.93-5.66-4.85z"/>
				<path id="&lt;Path&gt;" fill-rule="evenodd" class="s31" d="m293.01 113l-0.24-0.06c1.77 3.1-2.51 6.73-4.99 8.66l0.57 0.76v0.01q3.53 5.41 2.56 11.78-0.24 1.58-0.93 2.99c0.94-0.55 1.62-1.35 2.05-1.91q3.65-4.76 4.12-10.75l0.23-3.15 0.01-0.01 0.35-7.04z"/>
				<g id="&lt;Group&gt;">
					<path id="&lt;Path&gt;" fill-rule="evenodd" class="s31" d="m273.22 128.21c4.41 0.17 7.91 2.09 10.19 5.75q0.13 0.2 0.27 0.43-5.97-2.4-11.67 0.75c-1.57 0.87-3.15 2.3-4.32 3.66-0.05-0.12 0.06-0.65 0.03-0.77 0.08-1.73 0.5-4.31 1.04-5.67l1.28-1.79 2.24-1.75z"/>
					<path id="&lt;Path&gt;" fill-rule="evenodd" class="s32" d="m273.22 128.21c4.41 0.17 7.91 2.09 10.19 5.75q0.13 0.2 0.27 0.43-5.97-2.4-11.67 0.75c-1.57 0.87-3.15 2.3-4.32 3.66-0.05-0.12 0.06-0.65 0.03-0.77 0.08-1.73 0.5-4.31 1.04-5.67l1.28-1.79 2.24-1.75z"/>
				</g>
				<g id="&lt;Group&gt;">
					<path id="&lt;Path&gt;" fill-rule="evenodd" class="s33" d="m264.54 142.83q-3.77 5.1-4.34 11.46-0.09 0.94-0.11 1.89-2.28-4.04-3.34-8.57-1.49-6.36-0.24-12.75 0.21-0.19 0.42-0.38c2.27-1.98 5.4-3.69 8.25-4.69 3.33-1.08 4.8 0.15 3.84 2.82-0.55 1.36-0.81 2.31-1.19 4.52 0.04 0.12-0.12 1.2-0.14 1.67l-0.56 0.63q-1.37 1.35-2.35 2.99-0.12 0.2-0.24 0.41z"/>
					<path id="&lt;Path&gt;" fill-rule="evenodd" class="s34" d="m264.54 142.83q-3.77 5.1-4.34 11.46-0.09 0.94-0.11 1.89-2.28-4.04-3.34-8.57-1.49-6.36-0.24-12.75 0.21-0.19 0.42-0.38c2.27-1.98 5.4-3.69 8.25-4.69 3.33-1.08 4.8 0.15 3.84 2.82-0.55 1.36-0.81 2.31-1.19 4.52 0.04 0.12-0.12 1.2-0.14 1.67l-0.56 0.63q-1.37 1.35-2.35 2.99-0.12 0.2-0.24 0.41z"/>
				</g>
				<path id="&lt;Path&gt;" fill-rule="evenodd" class="s35" d="m256.51 134.83c-0.17 0.59-0.31 1.73-0.38 2.31 0.62-0.86 3.72-4.56 7.98-6.96-4 1.52-6.52 3.63-7.6 4.65z"/>
				<path id="&lt;Path&gt;" fill-rule="evenodd" class="s36" d="m265.89 128.68c-0.76 2.95 0.23 6.48 2.14 6.48q0 0 0.01 0c1.27-5.56 2.95-11.04 6.04-15.71-3.66 1.61-7.07 4.84-8.19 9.23z"/>
				<path id="&lt;Path&gt;" fill-rule="evenodd" class="s37" d="m268.04 134.97c2.7 0 1.6-2.78 4.35-5.93-0.63-1.13-1.47-1.67-1.8-2.84-1.07 2.83-1.87 5.79-2.55 8.77z"/>
				<path id="&lt;Path&gt;" fill-rule="evenodd" class="s38" d="m282.43 118.81c-2.22-1.1-5.77-0.8-8.76 0.73-1.44 2.17-2.15 4.22-3.08 6.66 0.33 1.17 0.51 2.44 1.15 3.57 0.24-0.28 0.73-0.87 1.04-1.16 1.32-1.21 2.17-2.01 4.11-3.41 2.55-1.83 9.91-4.24 5.54-6.39z"/>
				<path id="&lt;Path&gt;" fill-rule="evenodd" class="s39" d="m267.68 138.84c-0.07-3.74 0.88-7.41 2.02-10 1.34-0.4 3.07-0.67 3.62-0.63-1.5 1.14-4.85 5.18-5.64 10.63z"/>
				<path id="&lt;Path&gt;" fill-rule="evenodd" class="s40" d="m273.93 168.83c-0.45-1.41-0.76-5.11-0.15-7.93 0.06 3.13 0.8 5.89 2.42 8.73-0.99-0.27-1.56-0.5-2.27-0.8z"/>
				<path id="&lt;Path&gt;" fill-rule="evenodd" class="s41" d="m288.3 122.3c-2.5-3.44-5.12-5.85-9.68-6.48-1.35-0.19-1.77-1.74-1.33-2.86 6.11-1.6 11.54-1.1 15.63 0.04 1.63 3.28 3.17 7.43 3.06 11.21-2.25-0.94-5.57-1.71-7.68-1.91z"/>
				<path id="&lt;Path&gt;" fill-rule="evenodd" class="s42" d="m313.57 148.4c-1.11 1.43-4.5 4.54-9.4 4.79 1.7 0.22 6.04-0.21 8.16-0.9 0.57-1.3 1.09-3.07 1.24-3.89z"/>
				<path id="&lt;Path&gt;" fill-rule="evenodd" class="s43" d="m268.73 130.97c-0.38 1.33-0.66 3.05-0.84 4.17 0.34 0.01 0.62-0.07 0.92-0.27 0.84-1.69 3-5.63 4.51-6.66-2.46-0.35-4.07 2.38-4.59 2.76z"/>
				<path id="&lt;Path&gt;" fill-rule="evenodd" class="s44" d="m303.98 153.45c1.39-2.17 1.92-3.85 2.48-5.56 0.3-0.89 0.61-0.58 0.39 1.39-0.21 1.88-0.33 2.43-1.26 4.75-1.06 2.63-2.88 1.39-1.61-0.58z"/>
				<path id="&lt;Path&gt;" fill-rule="evenodd" class="s45" d="m305.9 152.56l0.26-0.06c0 0 0.39-1.04 0.52-1.78-0.26 0.7-0.5 1.29-0.78 1.84z"/>
				<path id="&lt;Path&gt;" fill-rule="evenodd" class="s38" d="m303.86 153.71c-0.47 0.7-2.04 3.98-6.71 6.01-3.2 1.39 0.7 0.72 2.4 0.26 2.23-0.61 5.69-3.36 6.37-6.74-0.35 0.05-1.77 0.02-2.06 0.47z"/>
				<path id="&lt;Path&gt;" fill-rule="evenodd" class="s46" d="m305.79 153.24c-0.2 1.33-0.98 2.68-1.95 3.8-1.11 1.17-2.73 2.26-4.54 2.74-0.71 0.19-1.2-0.21-0.65-0.53 2.34-1.67 3.85-3.45 5.36-5.89l1.18-1.79c0.17-0.25 0.64-0.16 0.66 0.53 0.01 0.52-0.06 1.14-0.06 1.14z"/>
				<path id="&lt;Path&gt;" fill-rule="evenodd" class="s47" d="m286.36 119.49c0.91 1.6-2.69 5.37-8.05 8.42-5.36 3.05-10.44 4.23-11.35 2.63-0.91-1.6 2.7-5.37 8.05-8.42 5.36-3.05 10.44-4.23 11.35-2.63z"/>
				<path id="&lt;Path&gt;" fill-rule="evenodd" class="s48" d="m279.54 116.51c1.92 2.41-0.32 7.4-5 11.16-4.69 3.76-10.06 4.87-11.99 2.46-1.92-2.4 0.32-7.39 5-11.16 4.69-3.76 10.06-4.86 11.99-2.46z"/>
				<path id="&lt;Path&gt;" fill-rule="evenodd" class="s49" d="m266.25 133.01c-1.1-0.48-1.2-6.41 2.5-10.44 4.29-4.67 12.27-4.46 12.79-2.42 0.47 1.79-3.3 2.82-6.92 6.19-2.59 2.41-6.28 7.6-8.37 6.67z"/>
			</g>
			<g id="&lt;Group&gt;">
				<path id="&lt;Path&gt;" class="s1" d="m419.63 76.85q-0.17-0.18-0.42-0.2c-2.45-0.12-5.16-0.21-7.77-0.29-3.15-0.09-6.4-0.19-9.33-0.36q0.05-1.37 0.14-2.7c0.07-1.16 0.15-2.35 0.17-3.57 4.38 0.09 8.33 0.33 12.32 0.6 0.33 0.02 0.59-0.21 0.63-0.53 0.25-1.99 0.41-4.83 0.57-7.57 0.08-1.45 0.16-2.88 0.25-4.14 0.02-0.31-0.2-0.59-0.5-0.64-2.27-0.39-5.04-0.53-7.72-0.66-1.98-0.1-4.02-0.2-5.81-0.4q0.04-0.57 0.08-1.14c0.09-1.41 0.18-2.86 0.21-4.36 4.85 0.15 9.43 0.38 14.73 0.73 0.34 0.03 0.62-0.23 0.65-0.56 0.13-1.88 0.28-4.32 0.43-6.7 0.22-3.49 0.42-6.78 0.57-8.1q0.02-0.25-0.14-0.45-0.17-0.2-0.43-0.21c-6.54-0.32-12.67-0.59-18.81-0.86-5.72-0.25-11.46-0.51-17.56-0.8-0.33 0-0.61 0.23-0.64 0.56-0.89 13.35-1.57 27.15-2.23 40.48q-0.42 8.34-0.85 16.66c-0.02 0.33 0.23 0.61 0.56 0.64 6.99 0.45 14.33 0.81 21.44 1.16 5.85 0.29 11.91 0.59 17.71 0.94q0.02 0 0.04 0c0.31 0 0.57-0.24 0.59-0.56 0.39-4.8 0.91-11.39 1.27-16.53q0.01-0.25-0.15-0.44z"/>
				<path id="&lt;Compound Path&gt;" class="s1" d="m368.66 37.09c-4.04-2.08-9.63-2.27-15.55-2.47q-2.34-0.07-4.65-0.19c-6.78-0.4-13.37-0.73-19.18-1.02l-2.41-0.12c-0.35 0-0.61 0.23-0.63 0.56-0.82 12.59-1.47 25.57-2.1 38.12q-0.48 9.52-0.99 19.02c-0.01 0.3 0.2 0.57 0.5 0.63 3.54 0.63 7.28 1.13 10.89 1.61 3.33 0.45 6.78 0.91 10.05 1.47q0.05 0.01 0.1 0.01 0.21 0 0.38-0.14 0.21-0.17 0.22-0.44c0.02-0.54-0.06-0.97-0.16-1.34q0.64 0.05 0.95-0.31c0.1-0.12 0.22-0.34 0.19-0.67l0.14-3.04c0.17-3.62 0.33-7.37 0.62-10.94 2.48 0.01 4.77 0.19 7 0.36 2.04 0.15 3.97 0.3 5.83 0.3 2.25 0 4.08-0.22 5.76-0.68 8.23-2.27 13.56-11.25 13.27-22.35-0.22-8.08-4.23-15.29-10.23-18.37zm-19.44 25.67q-0.64-0.09-1.45-0.11 0.14-2.31 0.24-4.66c0.12-2.53 0.23-5.14 0.47-7.58 1.81 0.01 3.13 0.05 4.23 0.58 2.57 1.25 3.28 4.28 2.84 6.74-0.38 2.17-1.91 4.81-4.91 5.1-0.46 0.05-0.92-0.01-1.42-0.07z"/>
				<path id="&lt;Compound Path&gt;" class="s1" d="m288.22 33.91q-0.67 0-1.33 0.03c-6.59 0.3-12.43 2.25-16.89 5.64-4.14 3.14-7.46 7.61-9.61 12.91q-0.19 0.49-0.37 0.98 0.01-1.26-0.09-2.58c-0.74-9.54-7.63-15.3-18.91-15.82-6.87-0.31-14.54-0.7-21.96-1.09-3.59-0.18-7.08-0.36-10.33-0.53q-0.07 0-0.13 0.01c-0.48 0.07-0.71 0.44-0.67 1.05q-0.39 7.35-0.79 14.75c-0.76 13.89-1.53 28.26-2.16 42.34-0.01 0.32 0.24 0.6 0.56 0.63 7.83 0.52 14.95 0.89 21.77 1.13 0.36-0.01 0.59-0.22 0.62-0.54 0.24-2.39 0.35-5.05 0.46-7.61 0.1-2.44 0.2-4.94 0.41-7.25 0.96 2.44 1.97 4.85 2.96 7.2 1.1 2.62 2.24 5.32 3.27 8.01 0.09 0.23 0.3 0.38 0.54 0.39 7.69 0.26 21.8 0.88 22.63 0.96q0.21 0.04 0.41-0.06c0.26-0.15 0.38-0.48 0.26-0.76l-1.04-2.53c-2.81-6.83-5.71-13.88-8.27-21.01 4.01-1.22 7.02-4.05 8.75-8.02-0.38 9.53 3.93 18.42 9.71 23.49 5.38 4.72 15.17 9.48 24.93 9.48q1.08 0 2.13-0.08c11.14-0.81 20.61-7.68 25.33-18.37 5.32-12.06 0.86-25.55-6.29-32.65-5.9-5.85-16.79-10.1-25.9-10.1zm-5.9 32.56c-0.37-4.6 2.79-9.66 6.5-10.4q0.86-0.17 1.76-0.17c4.01 0 7.63 2.54 8.08 5.67 0.6 4.25-2.3 10.09-5.63 11.36q-1.09 0.42-2.37 0.42c-3.76 0-8-2.77-8.34-6.88zm-52.33-11.78c0.1-1.59 0.2-3.23 0.23-4.91 1.77 0.05 3.1-0.11 4.18 0.4 1.36 0.64 2.3 2.58 2.34 4.82 0.03 1.8-0.57 4.06-2.36 4.98-0.52 0.26-1.04 0.38-1.73 0.38q-0.55-0.01-1.16-0.06-0.77-0.07-1.72-0.08-0.01 0-0.02 0c0.02-1.9 0.13-3.75 0.24-5.53z"/>
				<path id="&lt;Path&gt;" class="s1" d="m97.86 36.28c0.02-0.28-0.17-0.54-0.44-0.61-2.92-0.82-6.34-1.25-9.88-1.25-6.36 0-12.64 1.33-16.8 3.56-8.87 4.74-16.69 16.71-14.16 32.75 2.43 15.44 14.64 24.65 32.66 24.65q2.65 0 5.43-0.26c0.29-0.03 0.53-0.27 0.54-0.57l0.21-4.05q0.41-8.21 0.87-16.38 0.01-0.29-0.2-0.49-0.22-0.19-0.5-0.14-2.04 0.34-3.99 0.35c-3.22 0-10.79-0.82-11.33-8.35-0.23-3.25 0.51-5.82 2.2-7.64 1.88-2.02 4.93-3.09 8.81-3.09q2.2 0 4.59 0.46 0.27 0.04 0.48-0.12 0.21-0.17 0.23-0.44 0.26-3.9 0.56-7.74c0.27-3.46 0.54-7.03 0.72-10.64z"/>
				<path id="&lt;Path&gt;" class="s1" d="m192.39 36.21q0-0.18 0.01-0.39c0.03-0.56 0.08-1.4-0.7-1.86q-0.16-0.1-0.34-0.08c-9.73 0.57-20.41 1.13-33.6 1.77q-0.08 0-0.16 0.03c-0.23 0.01-0.75-0.01-0.88-0.03q-0.09-0.01-0.17 0c-1.04 0.11-2.18 0.15-3.27 0.2-0.96 0.04-1.95 0.09-2.89 0.17-0.35-0.13-0.76 0.04-1.47 0.41q-0.21 0.11-0.36 0.19c-4.09-0.27-8.3-0.48-12.37-0.68l-3.92-0.2c-0.33 0-0.61 0.24-0.63 0.57-0.22 4.13-0.41 8.1-0.61 12.02-0.42 8.42-0.81 16.38-1.35 25.06-0.12 1.99-1.01 4.36-4.55 4.36q-0.31 0-0.64-0.03-2.39-0.18-3.62-1.61-1.46-1.72-1.18-5.19c0.7-12.6 1.02-22 1.36-34.95 0.01-0.33-0.24-0.6-0.57-0.62q-6.35-0.33-12.66-0.71-4.08-0.24-8.17-0.47c-0.32-0.02-0.61 0.24-0.63 0.56-0.47 7.42-0.84 14.83-1.19 22.01q-0.36 7.59-0.78 15.05c-0.65 11.52 5.66 19.52 17.78 22.53 3 0.75 6.06 1.12 9.09 1.12 8.91 0 16.82-3.25 21.17-8.7 4.39-5.49 4.65-14.01 4.92-23.04 0.11-3.43 0.22-6.98 0.56-10.38q1.82-0.12 3.69-0.2c1.2-0.06 2.44-0.12 3.65-0.21q1.04 20.31 2.13 40.56c0.02 0.33 0.28 0.57 0.63 0.57 8.02-0.39 15.23-0.76 22.41-1.18 0.33-0.02 0.58-0.3 0.57-0.63q-0.32-6.03-0.65-12.05c-0.49-9.16-1-18.64-1.42-28.04q0-0.03 0-0.06c-0.01-0.06-0.03-0.24-0.04-0.45 1.04-0.01 3-0.03 3.32-0.04q1.61-0.12 3.27-0.18c1.51-0.07 3.07-0.14 4.52-0.31 0.31-0.04 0.55-0.32 0.53-0.64-0.17-2.58-0.31-5.34-0.45-8.08-0.11-2.1-0.22-4.19-0.34-6.17z"/>
			</g>
			<g id="&lt;Group&gt;">
				<path id="&lt;Compound Path&gt;" class="s50" d="m293.44 34.07q-2.68 0-5.36 0c-8.4 0.82-14.72 3.59-19.8 8.28-5.56 5.14-9.47 13.58-8.77 24.03 0.54 7.95 4.23 14.44 8.61 18.99 4.6 4.79 11.07 7.97 19.3 8.45 0.03-0.01 2.84 0.18 5.69-0.01 8.69-0.58 15.2-3.96 19.97-9.09 4.71-5.07 8.24-11.55 8.44-20.62 0.2-9.09-3.5-15.92-8.11-20.94-4.76-5.17-11.18-8.58-19.97-9.09zm-52.2 1.2q-0.05 0-0.11 0c-2.69 0.02-5.72 0.02-8.88 0.02-2.59 0-5.26 0-7.91 0-2.66 0-5.29-0.01-7.78-0.01-3.75 0-7.19 0.01-9.93 0.03 0 19.11-0.03 38.1-0.03 57.2q10.95 0 21.91 0 0-8.52 0-17.04c2.83 5.56 5.42 11.35 8.12 17.04q11.28 0 22.56 0c-3.05-7.72-7.27-15.64-10.6-23.63 9.22-2.52 12.24-15.92 7.92-24.92-2.41-5.02-8.3-8.69-15.27-8.69zm-12.73 25.59c0.02-0.03-0.03-11.67 0-11.67q0.89-0.04 1.62-0.04c3.03 0 4.04 0.54 5.09 1.97 1.64 2.21 1.49 5.73 0.35 7.65-1.13 1.89-2.83 2.1-5.09 2.1q-0.92 0-1.97-0.01zm122.06-25.62c-2.47 0-4.94 0.01-7.07 0.01-6.07 0-12.39 0.04-18.58 0.04-0.2 0.03-0.17 0.18-0.16 0.41q0 28.4 0 56.81 10.96 0 21.92 0c0.11-4.98-0.05-10.09-0.01-15.05q1.67-0.04 3.3-0.04 1.52 0 3 0.02 1.47 0.02 2.88 0.02c4.6 0 8.7-0.23 11.93-1.83 5.51-2.73 9.67-10.66 9.63-19.33-0.05-11.15-7.2-19.46-15.04-20.68-2.08-0.33-6.93-0.38-11.8-0.38zm-1.61 28.51q-1.05 0.01-2.28-0.3c0.11-4.43-0.22-9.3 0.16-13.47q1.14-0.27 2.13-0.26c4.27 0 6.4 3.51 6.41 7.01 0 3.52-2.13 7.02-6.42 7.02zm68.3-28.35c-0.11 4.85 0.21 10.14-0.17 14.72q-7.93 0-15.85 0 0 3.4 0 6.8 6.71 0 13.42 0c-0.1 3.88 0.22 8.2-0.16 11.81q-6.63 0-13.26 0 0 3.72 0 7.45 8.41 0 16.82 0 0 8.17 0 16.34-19.33 0-38.67 0c0.11-18.99-0.21-38.41 0.17-57.12q18.84 0 37.7 0zm-331.49-1.35c-18.32 1.1-28.39 12.43-28.56 29.57q0 0.64 0 1.28c0.36 16.89 11.52 27.92 29.13 28.95q2.42 0 4.83 0c1.85-0.18 3.77-0.3 5.41-0.69-0.12-6.84-0.33-13.59-0.49-20.38q-2.24 0.47-4.4 0.47c-4.26 0-8.03-1.37-9.87-4.01-1.78-2.56-2.22-7.25-0.99-10.34 1.63-4.07 6.21-5.97 11.66-5.97 1.16 0 2.75 0.14 3.6 0.26-0.02 0 0.59-18.35 0.59-18.31-3.5-0.86-9.22-0.94-10.91-0.83zm29.34 1.14c-6.29 0-16.82 0.02-16.79 0.02q0 15.31 0 30.71c0 3.38-0.21 6.8 0.19 9.95 0.75 5.73 3.6 10.11 7.49 12.99 3.85 2.87 9.23 4.66 15.65 5.02q1.96 0 3.93 0c8.98-0.36 18.1-4.04 21.86-11.42 2.77-5.44 2.21-11.77 2.27-18.89 0.05-6.57-0.01-12.21-0.01-12.22 0 0 0.4 0 1.03 0 2.46 0 8.41 0.01 8.42 0.02 0 13.72 0 27.52 0 41.23q11.27 0 22.54 0 0-20.62 0-41.25c0 0 10.33 0 10.35 0 0-5.35 0.02-10.73 0.02-16.07-20.38 0-40.69 0.01-61.07 0.01 0 12.93 0.01 24.75 0.01 37.68 0 3.95-1.72 6.13-4.99 6.13-4.36 0-6.44-3.18-6.44-6.52 0-12.83 0.11-24.55 0.11-37.38-0.01-0.01-1.91-0.01-4.57-0.01z"/>
				<path id="&lt;Compound Path&gt;" class="s51" d="m293.44 34.07q-2.68 0-5.36 0c-8.4 0.82-14.72 3.59-19.8 8.28-5.56 5.14-9.47 13.58-8.77 24.03 0.54 7.95 4.23 14.44 8.61 18.99 4.6 4.79 11.07 7.97 19.3 8.45 0.03-0.01 2.84 0.18 5.69-0.01 8.69-0.58 15.2-3.96 19.97-9.09 4.71-5.07 8.24-11.55 8.44-20.62 0.2-9.09-3.5-15.92-8.11-20.94-4.76-5.17-11.18-8.58-19.97-9.09zm-52.2 1.2q-0.05 0-0.11 0c-2.69 0.02-5.72 0.02-8.88 0.02-2.59 0-5.26 0-7.91 0-2.66 0-5.29-0.01-7.78-0.01-3.75 0-7.19 0.01-9.93 0.03 0 19.11-0.03 38.1-0.03 57.2q10.95 0 21.91 0 0-8.52 0-17.04c2.83 5.56 5.42 11.35 8.12 17.04q11.28 0 22.56 0c-3.05-7.72-7.27-15.64-10.6-23.63 9.22-2.52 12.24-15.92 7.92-24.92-2.41-5.02-8.3-8.69-15.27-8.69zm-12.73 25.59c0.02-0.03-0.03-11.67 0-11.67q0.89-0.04 1.62-0.04c3.03 0 4.04 0.54 5.09 1.97 1.64 2.21 1.49 5.73 0.35 7.65-1.13 1.89-2.83 2.1-5.09 2.1q-0.92 0-1.97-0.01zm122.06-25.62c-2.47 0-4.94 0.01-7.07 0.01-6.07 0-12.39 0.04-18.58 0.04-0.2 0.03-0.17 0.18-0.16 0.41q0 28.4 0 56.81 10.96 0 21.92 0c0.11-4.98-0.05-10.09-0.01-15.05q1.67-0.04 3.3-0.04 1.52 0 3 0.02 1.47 0.02 2.88 0.02c4.6 0 8.7-0.23 11.93-1.83 5.51-2.73 9.67-10.66 9.63-19.33-0.05-11.15-7.2-19.46-15.04-20.68-2.08-0.33-6.93-0.38-11.8-0.38zm-1.61 28.51q-1.05 0.01-2.28-0.3c0.11-4.43-0.22-9.3 0.16-13.47q1.14-0.27 2.13-0.26c4.27 0 6.4 3.51 6.41 7.01 0 3.52-2.13 7.02-6.42 7.02zm68.3-28.35c-0.11 4.85 0.21 10.14-0.17 14.72q-7.93 0-15.85 0 0 3.4 0 6.8 6.71 0 13.42 0c-0.1 3.88 0.22 8.2-0.16 11.81q-6.63 0-13.26 0 0 3.72 0 7.45 8.41 0 16.82 0 0 8.17 0 16.34-19.33 0-38.67 0c0.11-18.99-0.21-38.41 0.17-57.12q18.84 0 37.7 0zm-331.49-1.35c-18.32 1.1-28.39 12.43-28.56 29.57q0 0.64 0 1.28c0.36 16.89 11.52 27.92 29.13 28.95q2.42 0 4.83 0c1.85-0.18 3.77-0.3 5.41-0.69-0.12-6.84-0.33-13.59-0.49-20.38q-2.24 0.47-4.4 0.47c-4.26 0-8.03-1.37-9.87-4.01-1.78-2.56-2.22-7.25-0.99-10.34 1.63-4.07 6.21-5.97 11.66-5.97 1.16 0 2.75 0.14 3.6 0.26-0.02 0 0.59-18.35 0.59-18.31-3.5-0.86-9.22-0.94-10.91-0.83zm29.34 1.14c-6.29 0-16.82 0.02-16.79 0.02q0 15.31 0 30.71c0 3.38-0.21 6.8 0.19 9.95 0.75 5.73 3.6 10.11 7.49 12.99 3.85 2.87 9.23 4.66 15.65 5.02q1.96 0 3.93 0c8.98-0.36 18.1-4.04 21.86-11.42 2.77-5.44 2.21-11.77 2.27-18.89 0.05-6.57-0.01-12.21-0.01-12.22 0 0 0.4 0 1.03 0 2.46 0 8.41 0.01 8.42 0.02 0 13.72 0 27.52 0 41.23q11.27 0 22.54 0 0-20.62 0-41.25c0 0 10.33 0 10.35 0 0-5.35 0.02-10.73 0.02-16.07-20.38 0-40.69 0.01-61.07 0.01 0 12.93 0.01 24.75 0.01 37.68 0 3.95-1.72 6.13-4.99 6.13-4.36 0-6.44-3.18-6.44-6.52 0-12.83 0.11-24.55 0.11-37.38-0.01-0.01-1.91-0.01-4.57-0.01z"/>
			</g>
			<path id="&lt;Path&gt;" fill-rule="evenodd" class="s1" d="m290.77 54.48c5.22 0 9.45 4.23 9.45 9.45 0 5.23-4.23 9.46-9.45 9.46-5.22 0-9.45-4.23-9.45-9.46 0-5.22 4.23-9.45 9.45-9.45z"/>
			<g id="&lt;Group&gt;">
				<path id="&lt;Path&gt;" class="s49" d="m179.12 63.08q-0.19 0-0.37 0.03c-2.17 0.36-5.15 1.21-6.25 2.51-0.85 1-0.87 2.52-0.78 4.95q-0.01 0-0.02 0c-1.32 0-2.22 1.09-2.43 2.64q0 0.8 0 1.6c0.08 2.46 0.03 4.94 1.98 5.46-0.22 4.65-0.26 8.8 1.23 11.74 1.19 2.34 4.41 4.08 6.63 4.18q0.69 0.01 1.38 0.03 0.5 0 0.98-0.06c0.72-0.09 1.43-0.2 1.92-0.41 0.21 0.19 1.02 0.43 1.58 0.43q0.21 0.01 0.35-0.05c3.03-1.07 5.64-0.48 6.47-2.97 0.17 0.56 0.6 1.18 1.44 1.52 0.5 0.21 1.08 0.25 1.7 0.25q0.33 0 0.67-0.01 0.35-0.01 0.69-0.01 0.15 0 0.29 0c0.74 0.02 1.32 0.09 1.85 0.09 0.71 0 1.34-0.14 2.17-0.74 0.6-0.43 0.85-1.6 0.97-2.39 1.26 2.19 3.59 3.81 6.83 4.3 0.37 0.07 0.83 0.1 1.28 0.1 0.44 0 0.87-0.03 1.23-0.1 4.54-0.86 7.23-2.81 8.76-5.28 0.11-0.18 0.37-0.92 0.27-1.3-0.18-0.94-0.23-1.28-1.17-2.95 0.65-0.87 1-1.84 1.11-2.84 0.64-5.71-1.95-11.66-6.03-13.18q-1.62-0.58-3.1-0.57c-4.33 0-7.64 3.48-9.22 6.73-0.98-2.82-2.62-5.23-5.17-6.28-0.98-0.4-1.91-0.57-2.81-0.57q-0.7 0-1.4 0.05c0.63-4.05 0.44-6.87-1.03-7.81-1.59-1.03-5.17-1.43-6.95-1.26-1.77 0.18-2.45 1.43-2.74 2.63-0.39-0.46-1.25-0.52-2.31-0.46z"/>
				<path id="&lt;Path&gt;" class="s1" d="m179.88 65.87q-0.44 0-0.87 0c-1.65 0.32-3.14 0.8-4.3 1.6 0 1.81-0.07 3.76-0.07 5.57-0.79 0.16-1.69 0.15-2.44 0.35 0 0.29 0.06 3.47 0.18 4.43 0.04-0.03 1.58-0.1 1.9-0.1q0.05 0 0.06 0c-0.05 6.61-1.83 15.11 5.04 15.72 0.62 0 2.54 0 2.87-0.08 0-1.52 0-5.09-0.01-5.11q-0.86 0.27-1.53 0.27-0.88-0.01-1.31-0.43c-0.62-0.63-0.65-1.97-0.59-3.62 0.08-2.34 0.09-5.11 0.16-6.75 0 0 2.79 0.1 3.29 0.1q0.07 0 0.08 0c0.17-1.72 0.12-3.55 0.12-5.44-0.98 0.06-2.34 0.23-3.22 0.27 0.22-2.21 0.36-4.63 0.64-6.78z"/>
				<path id="&lt;Path&gt;" class="s1" d="m193.63 72.8c-1.3 0-2.79 0.54-4.32 1.54 0.1-3.34 0.5-7.95 0.39-9.49-0.23-0.86-3.23-1.16-4.85-0.97 0 6.72 0.05 23.98 0.18 29.6 0.08 0 2.72-0.76 4.12-1.01 0.13-4.13 0.07-8.72 0.18-12.89 0.88-0.42 2.19-1.38 3.39-1.38q0.47 0 0.92 0.21c1.06 0.5 1.15 3.34 1.16 5.18 0.01 3.01-0.21 6.54-0.29 8.54 0.92 0.06 3 0.08 4.31 0.24 0.66-7.02 2.6-16.68-3.94-19.33q-0.61-0.24-1.25-0.24z"/>
				<path id="&lt;Compound Path&gt;" class="s1" d="m210.83 73.01q-0.29 0-0.56 0.03c-8.25 0.72-11.22 19.34-1.47 20.44q1.04 0 2.09 0c2.86-0.46 4.63-2.02 6.4-3.57q0-0.06 0-0.12c-0.54-1.1-1.13-2.15-1.6-3.33-1.95 0.65-3.55 2.11-6.03 2.11q-0.63 0.01-1.36-0.14c-0.73-0.58-0.96-1.66-0.86-3.08 3.09-0.23 6.5-0.15 9.36-0.61 0.97-4.94-0.56-10.15-4.04-11.41-0.65-0.23-1.33-0.32-1.93-0.32zm-2.77 8.4c0.06-1.31 1.07-3.72 2.58-3.72q0.25 0 0.52 0.09c0.5 0.18 1.15 1.5 1.21 3.01q-2.02 0.45-4.31 0.62z"/>
			</g>
			<g id="&lt;Group&gt;">
				<path id="&lt;Path&gt;" fill-rule="evenodd" class="s1" d="m65.68 98.81h10.72v5.81h-10.72z"/>
				<path id="&lt;Compound Path&gt;" fill-rule="evenodd" class="s52" d="m407.22 98.81h10.72v5.81h-10.72zm-15.53 5.8h10.72v-5.8h-10.72zm-15.52 0h10.72v-5.81h-10.72zm-15.53 0h10.72v-5.8h-10.72zm-15.52 0h10.72v-5.81h-10.72z"/>
				<path id="&lt;Path&gt;" fill-rule="evenodd" class="s1" d="m329.6 98.81h10.72v5.81h-10.72z"/>
				<path id="&lt;Path&gt;" fill-rule="evenodd" class="s1" d="m314.07 98.81h10.72v5.81h-10.72z"/>
				<path id="&lt;Path&gt;" fill-rule="evenodd" class="s1" d="m298.55 98.81h10.72v5.81h-10.72z"/>
				<path id="&lt;Path&gt;" fill-rule="evenodd" class="s1" d="m283.02 98.81h10.72v5.81h-10.72z"/>
				<path id="&lt;Path&gt;" fill-rule="evenodd" class="s1" d="m267.5 98.81h10.72v5.81h-10.72z"/>
				<path id="&lt;Path&gt;" fill-rule="evenodd" class="s1" d="m251.97 98.81h10.72v5.81h-10.72z"/>
				<path id="&lt;Path&gt;" fill-rule="evenodd" class="s1" d="m236.45 98.81h10.72v5.81h-10.72z"/>
				<path id="&lt;Path&gt;" fill-rule="evenodd" class="s1" d="m220.92 98.81h10.73v5.81h-10.73z"/>
				<path id="&lt;Path&gt;" fill-rule="evenodd" class="s1" d="m205.4 98.81h10.72v5.81h-10.72z"/>
				<path id="&lt;Path&gt;" fill-rule="evenodd" class="s1" d="m189.88 98.81h10.72v5.81h-10.72z"/>
				<path id="&lt;Path&gt;" fill-rule="evenodd" class="s1" d="m174.35 98.81h10.72v5.81h-10.72z"/>
				<path id="&lt;Path&gt;" fill-rule="evenodd" class="s1" d="m158.83 98.81h10.72v5.81h-10.72z"/>
				<path id="&lt;Path&gt;" fill-rule="evenodd" class="s1" d="m143.3 98.81h10.72v5.81h-10.72z"/>
				<path id="&lt;Path&gt;" fill-rule="evenodd" class="s1" d="m127.78 98.81h10.72v5.81h-10.72z"/>
				<path id="&lt;Path&gt;" fill-rule="evenodd" class="s1" d="m112.25 98.81h10.72v5.81h-10.72z"/>
				<path id="&lt;Path&gt;" fill-rule="evenodd" class="s1" d="m96.73 98.81h10.72v5.81h-10.72z"/>
				<path id="&lt;Path&gt;" fill-rule="evenodd" class="s1" d="m81.21 98.81h10.72v5.81h-10.72z"/>
			</g>
			<path id="&lt;Compound Path&gt;" fill-rule="evenodd" class="s1" d="m50.61 103.11c15.12-8.34 35.52-19.84 35.52-19.84 0 0-3.05-2.94-6.62-3.26-4.11-0.37-6.87 0.91-15.55 5.97-8.8 5.13-10.95 6.3-13.61 11.17-0.24 0.44-0.66 0.92-1.2 1.42q-0.11-0.06-0.18-0.1c-1.85-1.02-2.18-3.75-2.11-5.97q0.33-0.55 0.61-1.15c3.05-6.54 0.22-14.32-6.32-17.37-6.55-3.06-14.33-0.23-17.38 6.32-3.05 6.55-0.22 14.32 6.32 17.38 2.73 1.27 5.67 1.51 8.39 0.89 0.84 0.01 1.62 0.06 2.08 0.2 1.18 0.36 3.16 1.3 5.01 2.43-1.9 1.18-3.87 2.17-5.01 2.51-0.35 0.11-0.89 0.19-1.51 0.27-2.52-0.43-5.19-0.12-7.68 1.04-6.54 3.05-9.37 10.83-6.32 17.38 3.05 6.54 10.83 9.37 17.38 6.32 6.54-3.05 9.37-10.83 6.32-17.38q-0.76-1.6-1.86-2.89c0.13-1.82 0.64-3.65 2.08-4.43q0.09-0.06 0.18-0.11 0.5 0.52 0.77 0.99c2.66 4.87 5.24 6.47 14.04 11.61 8.68 5.06 11.44 6.34 15.55 5.96 3.57-0.32 6.62-3.26 6.62-3.26l-30.44-17.03zm-22.25-20.66c1.83-3.93 6.49-5.63 10.42-3.8 3.92 1.83 5.62 6.49 3.79 10.42-1.83 3.93-6.5 5.62-10.42 3.8-3.92-1.84-5.62-6.5-3.79-10.42zm11.7 41.6c-3.93 1.83-8.59 0.13-10.42-3.79-1.83-3.92-0.13-8.59 3.79-10.42 3.93-1.83 8.59-0.13 10.42 3.79 1.83 3.93 0.13 8.59-3.79 10.42z"/>
			<g id="&lt;Group&gt;">
				<path id="&lt;Path&gt;" fill-rule="evenodd" class="s1" d="m287.73 111.98l0.06-40.74c0 0 0.12-6.41-2.67-12.68-1.81 1.09-3.45 3.55-3.45 5.6v47.79c-1.15 0.29-1.89 0.74-1.89 1.24 0 0.87 2.17 1.57 4.86 1.57 2.68 0 4.85-0.7 4.85-1.57 0-0.48-0.68-0.92-1.76-1.21z"/>
				<g id="&lt;Group&gt;">
					<path id="&lt;Path&gt;" fill-rule="evenodd" class="s53" d="m287.4 66.32c-0.3-2.1-0.96-5.32-2.28-7.83-1.4 0.88-3.5 3.06-3.5 5.97v12.01c1.08-2.83 4.35-8.1 5.78-10.15z"/>
					<path id="&lt;Path&gt;" fill-rule="evenodd" class="s54" d="m287.82 80.82c-1.42 1.63-4.23 7.87-6.2 9.88v12.85c1.76-1.59 4.44-6.61 6.2-8.29z"/>
				</g>
				<path id="&lt;Path&gt;" fill-rule="evenodd" class="s55" d="m281.87 75.86c0.35-2.08 1.14-3.76 1.99-5.41 0.65-1.26 2.37-3.01 3.24-3.7-1.54 2.29-3.14 4.71-5.23 9.11z"/>
				<path id="&lt;Path&gt;" fill-rule="evenodd" class="s55" d="m287.66 81.12c-1.63 2.33-3.73 6.85-5.65 9.27 1.39-1.3 2.79-3.33 3.79-4.93 1-1.61 1.65-3.51 1.86-4.34z"/>
			</g>
		</g>
	</g>
	<g id="TM">
		<path id="&lt;Path&gt;" class="s1" d="m431.81 40.09q-0.11-0.4-0.29-0.87c-0.28-0.91-0.46-1.94-1.56-1.39-0.26 0.13-0.53 0.6-0.77 0.59-0.14-0.01-0.34-0.75-0.78-0.8-1.14-0.1-1.41 0.79-1.71 1.67-0.13 0.37-0.89 2.12-0.07 2.19 0.94 0.09 0.76-1.39 1.33-1.82 0.38 0.32 0.25 1.29 0.71 1.51 1.13 0.15 0.89-1.05 1.43-1.51 0.59 0.48 0.29 1.98 1.22 1.96 0.72-0.01 0.65-0.98 0.49-1.53z"/>
		<path id="&lt;Path&gt;" class="s1" d="m426.6 37.79c-0.15-0.37-1.26-0.42-1.75-0.4-1.16 0.08-2.84-0.06-2.49 1.24 0.12 0.46 0.81 0.41 1.3 0.4 0.5 0.65-0.51 2.45 0.41 2.63 1.18 0.22 0.74-1.87 1.08-2.74 0.3-0.1 0.51-0.03 0.79-0.06 0.48-0.08 0.81-0.67 0.66-1.07z"/>
	</g>
</svg>